<?xml version="1.0" encoding="utf-8" standalone="yes"?>
<!DOCTYPE svg PUBLIC "-//W3C//DTD SVG 1.1//EN" "http://www.w3.org/Graphics/SVG/1.1/DTD/svg11.dtd">
<svg width="864" height="708" viewBox="0 0 864 708" style="fill:none;stroke:none;fill-rule:evenodd;clip-rule:evenodd;stroke-linecap:round;stroke-linejoin:round;stroke-miterlimit:1.5;" version="1.1" xmlns="http://www.w3.org/2000/svg" xmlns:xlink="http://www.w3.org/1999/xlink"><style class="text-font-style fontImports" data-font-family="Roboto">@import url('https://fonts.googleapis.com/css2?family=Roboto:wght@400;700&amp;display=block');</style><g id="items" style="isolation: isolate"><g id="blend" style="mix-blend-mode: normal"><g id="g-root-cp_5_g-5_1uljcc4puv2ma-fill" data-item-order="-499360" transform="translate(230.77301025390625, 162.5570068359375)"><g id="cp_5_g-5_1uljcc4puv2ma-fill" stroke="none" fill="#fff2e5"><g><path d="M 107.6701 193.918C 108.2996 191.201 109.0522 188.489 109.931 185.787C 119.813 155.408 143.406 133.321 171.628 124.15L 179.029 146.988L 217.612 71.4143L 134.64 10L 142.034 32.8185C 85.5883 51.1599 38.4023 95.3335 18.6391 156.092C 14.1431 169.914 11.2997 183.877 10 197.767L 69.2288 155.469L 107.6701 193.918Z"></path></g></g></g><g id="g-root-cp_4_g-4_1lpwc38puv3f0-fill" data-item-order="-499356" transform="translate(206, 308.0250244140625)"><g id="cp_4_g-4_1lpwc38puv3f0-fill" stroke="none" fill="#fffbda"><g><path d="M 150.009 246.348L 128.112 176.98L 176.547 152.32C 147.557 134.937 129.964 103.435 129.974 70.0035L 154 70.0058L 94.0058 10L 10 69.9918L 33.948 69.9941C 33.9255 145.26 78.5144 215.637 150.009 246.348Z"></path></g></g></g><g id="g-root-cp_3_g-3_1ha2tyspuv47a-fill" data-item-order="-499352" transform="translate(324.1090087890625, 436.5079345703125)"><g id="cp_3_g-3_1ha2tyspuv47a-fill" stroke="none" fill="#f4ffdc"><g><path d="M 179.461 67.6312L 170.936 13.9446C 146.332 35.3255 111.447 43.6398 78.193 32.823L 85.6168 10L 10 48.498L 41.0743 146.938L 48.498 124.115C 123.739 148.589 203.154 124.094 252.25 68.1899L 179.461 67.6312Z"></path></g></g></g><g id="g-root-cp_2_g-2_1cu9bucpuv4zk-fill" data-item-order="-499348" transform="translate(480.2659912109375, 269.97698974609375)"><g id="cp_2_g-2_1cu9bucpuv4zk-fill" stroke="none" fill="#e3fff2"><g><path d="M 23.3069 234.163L 10 150.36L 29.443 164.474C 35.2 156.54 39.83 147.583 43.0258 137.758C 50.4908 114.808 48.8441 91.0816 40.0791 70.4939L 93.786 78.9904L 116.806 10C 144.023 55.8565 152.109 112.757 134.318 167.453C 127.926 187.103 118.666 205.018 107.1518 220.886L 126.532 234.955L 23.3069 234.163Z"></path></g></g></g><g id="g-root-cp_1_g-1_1cu9bucpuv4zm-fill" data-item-order="-499344" transform="translate(379.89801025390625, 175.9859619140625)"><g id="cp_1_g-1_1cu9bucpuv4zm-fill" stroke="none" fill="#e8f9ff"><g><path d="M 10 14.6933C 42.5543 7.3463 77.4482 8.3958 111.488 19.4681C 151.566 32.5047 184.428 57.4734 207.42 89.1612L 226.823 75.0589L 194.15 172.98L 110.339 159.721L 129.759 145.606C 118.263 129.763 101.8321 117.278 81.7929 110.76C 69.1375 106.6435 56.2458 105.2978 43.7746 106.3885L 68.4867 57.9843L 10 14.6933Z"></path></g></g></g><g id="g-root-tx__13z8sokpuv2mk-fill" data-item-order="0" transform="translate(260, 38)"><g id="tx__13z8sokpuv2mk-fill" stroke="none" fill="#484848"><g><text style="font: 20px Roboto, sans-serif; white-space: pre;" font-size="20px" font-family="Roboto, sans-serif"><tspan x="12" y="34" dominant-baseline="ideographic">パーソナライズされた推薦サイクル</tspan></text></g></g></g><g id="g-root-ic_view_1utnigkpuv37p-fill" data-item-order="0" transform="translate(710, 110)"></g><g id="g-root-ic_fore_dcy910puv2mn-fill" data-item-order="0" transform="translate(86, 182)"></g><g id="g-root-tx__meu050puv3er-fill" data-item-order="0" transform="translate(662, 170)"><g id="tx__meu050puv3er-fill" stroke="none" fill="#1eabda"><g><text style="font: bold 20px Roboto, sans-serif; white-space: pre;" font-weight="bold" font-size="20px" font-family="Roboto, sans-serif"><tspan x="12" y="34" dominant-baseline="ideographic">ユーザーデータ</tspan><tspan x="52" y="58" dominant-baseline="ideographic">の収集</tspan></text></g></g></g><g id="g-root-tx__qnsab8puv47h-fill" data-item-order="0" transform="translate(38, 242)"><g id="tx__qnsab8puv47h-fill" stroke="none" fill="#de8431"><g><text style="font: bold 20px Roboto, sans-serif; white-space: pre;" font-weight="bold" font-size="20px" font-family="Roboto, sans-serif"><tspan x="12" y="34" dominant-baseline="ideographic">ユーザーエンゲ</tspan><tspan x="12" y="58" dominant-baseline="ideographic">ージメントの監</tspan><tspan x="72" y="82" dominant-baseline="ideographic">視</tspan></text></g></g></g><g id="g-root-tx__93dhropuv4zo-fill" data-item-order="0" transform="translate(662, 230)"><g id="tx__93dhropuv4zo-fill" stroke="none" fill="#484848"><g><text style="font: 15px Roboto, sans-serif; white-space: pre;" font-size="15px" font-family="Roboto, sans-serif"><tspan x="14.5" y="27.6" dominant-baseline="ideographic">ユーザーの行動と嗜</tspan><tspan x="52" y="45.6" dominant-baseline="ideographic">好を収集</tspan></text></g></g></g><g id="g-root-ic_2_1hqnopuwidc-fill" data-item-order="0" transform="translate(710, 302)"></g><g id="g-root-tx__m7ys6spuv4zq-fill" data-item-order="0" transform="translate(38, 326)"><g id="tx__m7ys6spuv4zq-fill" stroke="none" fill="#484848"><g><text style="font: 15px Roboto, sans-serif; white-space: pre;" font-size="15px" font-family="Roboto, sans-serif"><tspan x="14.5" y="27.6" dominant-baseline="ideographic">エンゲージメントデ</tspan><tspan x="44.5" y="45.6" dominant-baseline="ideographic">ータを分析</tspan></text></g></g></g><g id="g-root-tx__m7ys6spuwidq-fill" data-item-order="0" transform="translate(662, 362)"><g id="tx__m7ys6spuwidq-fill" stroke="none" fill="#3cc583"><g><text style="font: bold 20px Roboto, sans-serif; white-space: pre;" font-weight="bold" font-size="20px" font-family="Roboto, sans-serif"><tspan x="12" y="34" dominant-baseline="ideographic">データのベクト</tspan><tspan x="62" y="58" dominant-baseline="ideographic">ル化</tspan></text></g></g></g><g id="g-root-ic_spar_1luw4s4puv3lu-fill" data-item-order="0" transform="translate(86, 398)"></g><g id="g-root-tx__4hb8s4puwhl3-fill" data-item-order="0" transform="translate(662, 422)"><g id="tx__4hb8s4puwhl3-fill" stroke="none" fill="#484848"><g><text style="font: 15px Roboto, sans-serif; white-space: pre;" font-size="15px" font-family="Roboto, sans-serif"><tspan x="14.5" y="27.6" dominant-baseline="ideographic">データを高次元ベク</tspan><tspan x="44.5" y="45.6" dominant-baseline="ideographic">トルに変換</tspan></text></g></g></g><g id="g-root-tx__4kfm7opuv4lk-fill" data-item-order="0" transform="translate(38, 458)"><g id="tx__4kfm7opuv4lk-fill" stroke="none" fill="#e0cb15"><g><text style="font: bold 20px Roboto, sans-serif; white-space: pre;" font-weight="bold" font-size="20px" font-family="Roboto, sans-serif"><tspan x="12" y="34" dominant-baseline="ideographic">コンテンツの推</tspan><tspan x="72" y="58" dominant-baseline="ideographic">薦</tspan></text></g></g></g><g id="g-root-ic_left_dg2mgkpuwh6z-fill" data-item-order="0" transform="translate(710, 494)"></g><g id="g-root-tx__1qapmwkpuv2tl-fill" data-item-order="0" transform="translate(38, 518)"><g id="tx__1qapmwkpuv2tl-fill" stroke="none" fill="#484848"><g><text style="font: 15px Roboto, sans-serif; white-space: pre;" font-size="15px" font-family="Roboto, sans-serif"><tspan x="14.5" y="27.6" dominant-baseline="ideographic">ユーザーにコンテン</tspan><tspan x="52" y="45.6" dominant-baseline="ideographic">ツを提案</tspan></text></g></g></g><g id="g-root-tx__zmjnzopuwhz5-fill" data-item-order="0" transform="translate(680, 554)"><g id="tx__zmjnzopuwhz5-fill" stroke="none" fill="#92bd39"><g><text style="font: bold 20px Roboto, sans-serif; white-space: pre;" font-weight="bold" font-size="20px" font-family="Roboto, sans-serif"><tspan x="14" y="34" dominant-baseline="ideographic">類似性分析</tspan></text></g></g></g><g id="g-root-tx__mb35mcpuwjk2-fill" data-item-order="0" transform="translate(662, 590)"><g id="tx__mb35mcpuwjk2-fill" stroke="none" fill="#484848"><g><text style="font: 15px Roboto, sans-serif; white-space: pre;" font-size="15px" font-family="Roboto, sans-serif"><tspan x="14.5" y="27.6" dominant-baseline="ideographic">ベクトル間の類似性</tspan><tspan x="59.5" y="45.6" dominant-baseline="ideographic">を評価</tspan></text></g></g></g><g id="g-root-cp_5_g-5_1uljcc4puv2ma-stroke" data-item-order="-499360" transform="translate(230.77301025390625, 162.5570068359375)"><g id="cp_5_g-5_1uljcc4puv2ma-stroke" fill="none" stroke-linecap="round" stroke-linejoin="round" stroke-miterlimit="4" stroke="#de8431" stroke-width="2"><g><path d="M 107.6701 193.918C 108.2996 191.2011 109.0522 188.4886 109.931 185.7869C 119.8126 155.4076 143.4056 133.3209 171.6285 124.1502L 179.0286 146.9878L 217.6117 71.4143L 134.6401 10L 142.034 32.8185C 85.5884 51.1599 38.4023 95.3335 18.6391 156.0919C 14.1431 169.9139 11.2997 183.8768 10 197.7668L 69.2288 155.4692L 107.6701 193.918Z"></path></g></g></g><g id="g-root-cp_4_g-4_1lpwc38puv3f0-stroke" data-item-order="-499356" transform="translate(206, 308.0250244140625)"><g id="cp_4_g-4_1lpwc38puv3f0-stroke" fill="none" stroke-linecap="round" stroke-linejoin="round" stroke-miterlimit="4" stroke="#e0cb15" stroke-width="2"><g><path d="M 150.0093 246.3484L 128.1118 176.9796L 176.5473 152.3202C 147.5572 134.9374 129.964 103.435 129.9739 70.0035L 154 70.0058L 94.0058 10L 10 69.9918L 33.948 69.9941C 33.9255 145.2599 78.5144 215.6369 150.0093 246.3484Z"></path></g></g></g><g id="g-root-cp_3_g-3_1ha2tyspuv47a-stroke" data-item-order="-499352" transform="translate(324.1090087890625, 436.5079345703125)"><g id="cp_3_g-3_1ha2tyspuv47a-stroke" fill="none" stroke-linecap="round" stroke-linejoin="round" stroke-miterlimit="4" stroke="#92bd39" stroke-width="2"><g><path d="M 179.4609 67.6312L 170.9362 13.9446C 146.3322 35.3255 111.4473 43.6398 78.193 32.823L 85.6168 10L 10 48.498L 41.0743 146.9378L 48.498 124.1149C 123.7392 148.589 203.1544 124.0935 252.2501 68.1899L 179.4609 67.6312Z"></path></g></g></g><g id="g-root-cp_2_g-2_1cu9bucpuv4zk-stroke" data-item-order="-499348" transform="translate(480.2659912109375, 269.97698974609375)"><g id="cp_2_g-2_1cu9bucpuv4zk-stroke" fill="none" stroke-linecap="round" stroke-linejoin="round" stroke-miterlimit="4" stroke="#3cc583" stroke-width="2"><g><path d="M 23.3069 234.1627L 10 150.3598L 29.443 164.4742C 35.2 156.5403 39.83 147.5826 43.0258 137.7576C 50.4908 114.8079 48.8441 91.0816 40.0791 70.4939L 93.786 78.9904L 116.8057 10C 144.0228 55.8565 152.1087 112.7574 134.3177 167.4526C 127.9259 187.1028 118.6658 205.0183 107.1518 220.8863L 126.5317 234.955L 23.3069 234.1627Z"></path></g></g></g><g id="g-root-cp_1_g-1_1cu9bucpuv4zm-stroke" data-item-order="-499344" transform="translate(379.89801025390625, 175.9859619140625)"><g id="cp_1_g-1_1cu9bucpuv4zm-stroke" fill="none" stroke-linecap="round" stroke-linejoin="round" stroke-miterlimit="4" stroke="#1eabda" stroke-width="2"><g><path d="M 10 14.6933C 42.5543 7.3463 77.4482 8.3959 111.4879 19.4681C 151.5664 32.5047 184.4284 57.4734 207.4199 89.1612L 226.8227 75.0589L 194.15 172.9797L 110.3394 159.7208L 129.7589 145.6065C 118.2631 129.7626 101.8321 117.2783 81.7929 110.76C 69.1375 106.6435 56.2458 105.2978 43.7746 106.3885L 68.4867 57.9843L 10 14.6933Z"></path></g></g></g><g id="g-root-tx__13z8sokpuv2mk-stroke" data-item-order="0" transform="translate(260, 38)"></g><g id="g-root-ic_view_1utnigkpuv37p-stroke" data-item-order="0" transform="translate(710, 110)"><g id="ic_view_1utnigkpuv37p-stroke" fill="none" stroke-linecap="round" stroke-linejoin="round" stroke-miterlimit="4" stroke="#1eabda" stroke-width="2"><g><path d="M 28.52 45.063999L 16 45.063999C 13.790861 45.063999 12 43.27314 12 41.063999L 12 16.048C 12 13.838861 13.790861 12.048 16 12.048L 46.018002 12.048C 48.227139 12.048 50.018002 13.838861 50.018002 16.048L 50.018002 29.666M 12 19.860001L 50.02 19.860001M 12 36.468002L 28.736 36.468002M 12 28.177999L 34.021999 28.177999M 27.530001 19.860001L 27.530001 45.063999M 38.662003 19.860001L 38.662003 28.177999M 42.155998 51.632C 47.618256 51.518284 51.955372 47.000343 51.846001 41.538002C 51.955372 36.075653 47.618256 31.557716 42.155998 31.444C 36.693745 31.557716 32.356628 36.075653 32.466 41.538002C 32.356628 47.000343 36.693745 51.518284 42.155998 51.632ZM 56 55.953999L 49 48.672001"></path></g></g></g><g id="g-root-ic_fore_dcy910puv2mn-stroke" data-item-order="0" transform="translate(86, 182)"><g id="ic_fore_dcy910puv2mn-stroke" fill="none" stroke-linecap="round" stroke-linejoin="round" stroke-miterlimit="4" stroke="#de8431" stroke-width="2"><g><path d="M 11 12.034L 11 55.966L 57 55.966M 51.762001 33.478001C 47.86594 39.362556 41.314705 42.942833 34.258003 43.044003C 27.201662 42.941444 20.651031 39.3615 16.754 33.478001C 16.465897 33.005089 16.465897 32.410912 16.754 31.938002C 20.649847 26.052944 27.20101 22.471962 34.257999 22.369999C 41.315353 22.47057 47.867126 26.051886 51.762001 31.938C 52.051937 32.410393 52.051937 33.005608 51.762001 33.477997ZM 27.908001 32.708C 27.907698 36.215221 30.750778 39.058548 34.257999 39.058548C 37.765221 39.058548 40.608303 36.215221 40.608002 32.708C 40.608303 29.200777 37.765221 26.357452 34.257999 26.357452C 30.750778 26.357452 27.907698 29.200777 27.907999 32.708M 11.516 55.450001L 22.024 44.942001M 45.456001 12.034L 54.931999 12.034L 54.931999 21.51M 47.172001 19.793999L 54.931999 12.034"></path></g></g></g><g id="g-root-tx__meu050puv3er-stroke" data-item-order="0" transform="translate(662, 170)"></g><g id="g-root-tx__qnsab8puv47h-stroke" data-item-order="0" transform="translate(38, 242)"></g><g id="g-root-tx__93dhropuv4zo-stroke" data-item-order="0" transform="translate(662, 230)"></g><g id="g-root-ic_2_1hqnopuwidc-stroke" data-item-order="0" transform="translate(710, 302)"><g id="ic_2_1hqnopuwidc-stroke" fill="none" stroke-linecap="round" stroke-linejoin="round" stroke-miterlimit="4" stroke="#3cc583" stroke-width="2"><g><path d="M 46 15.559999C 46.039009 14.647261 45.454567 13.824103 44.580002 13.559999L 36.580002 11.16C 36.199799 11.059993 35.800201 11.059993 35.419998 11.16L 27.42 13.559999C 26.545435 13.824103 25.960993 14.647261 26 15.559999L 26 25.720001C 25.999207 26.539608 26.498558 27.276745 27.26 27.58L 35.260002 30.780001C 35.735184 30.969248 36.264816 30.969248 36.739998 30.780001L 44.740002 27.58C 45.501442 27.276745 46.000793 26.539608 46 25.720001L 46 15.559999ZM 45.5 14.219999L 36 17.08L 26.52 14.219999M 36 17L 36 30.92M 56 35.760002C 55.994694 35.351372 55.74128 34.987083 55.360001 34.84L 48.360001 32.200001C 48.126797 32.119232 47.873207 32.119232 47.640003 32.200001L 40.639999 34.84C 40.25872 34.987083 40.005306 35.351372 40 35.760002L 40 43.459999C 40.003891 43.841053 40.219868 44.188164 40.559998 44.360001L 47.560001 47.860001C 47.841045 47.980064 48.158951 47.980064 48.439999 47.860001L 55.439999 44.360001C 55.780132 44.188164 55.996109 43.841053 56 43.459999L 56 35.760002ZM 55.779999 35.16L 48 38.080002L 40.220001 35.16M 48 38L 48 47.959999M 36 38.52C 36.00222 37.660168 35.454624 36.895142 34.639999 36.620003L 24.639999 33.279999C 24.224854 33.139778 23.775146 33.139778 23.360001 33.279999L 13.36 36.620003C 12.545377 36.895142 11.997781 37.660168 12 38.52L 12 51.639999C 11.997781 52.499832 12.545377 53.264854 13.36 53.540001L 23.360001 56.860001C 23.775146 57.000221 24.224854 57.000221 24.639999 56.860001L 34.639999 53.540001C 35.454624 53.264854 36.00222 52.499832 36 51.639999ZM 35.540001 37.239998L 24 41.080002L 12.46 37.239998M 24 41L 24 56.959999"></path></g></g></g><g id="g-root-tx__m7ys6spuv4zq-stroke" data-item-order="0" transform="translate(38, 326)"></g><g id="g-root-tx__m7ys6spuwidq-stroke" data-item-order="0" transform="translate(662, 362)"></g><g id="g-root-ic_spar_1luw4s4puv3lu-stroke" data-item-order="0" transform="translate(86, 398)"><g id="ic_spar_1luw4s4puv3lu-stroke" fill="none" stroke-linecap="round" stroke-linejoin="round" stroke-miterlimit="4" stroke="#e0cb15" stroke-width="2"><g><path d="M 50.5 35.099602L 52.900002 35.099602C 54.900002 35.099602 56.5 36.6996 56.5 38.6996C 56.5 40.6996 54.900002 42.299599 52.900002 42.299599L 50.5 42.299599M 50.5 49.499599L 51.099998 49.499599C 53.099998 49.499599 54.700001 47.899601 54.700001 45.899601C 54.700001 43.899601 53.099998 42.299599 51.099998 42.299599L 50.5 42.299599M 50.499802 35.099602L 51.899799 35.099602C 53.899799 35.099602 55.499802 33.499599 55.499802 31.499599C 55.499802 29.49962 53.899799 27.899639 51.899799 27.899639L 39.899799 27.899639L 40.0998 27.49962C 42.0998 24.099621 43.299801 20.09964 43.499802 15.89964C 43.699799 14.49964 43.0998 13.29962 41.899799 12.49962C 41.0998 11.899612 40.299801 11.899588 39.299801 12.09958C 38.299801 12.29958 37.499802 12.89962 37.0998 13.69962C 33.020798 20.837639 30.305401 29.84008 23.299801 34.899597L 11.5 34.899597M 50.5 49.499599L 49.099998 49.499599C 51.299999 49.499599 52.900002 51.299599 52.5 53.499599C 52.299999 55.299599 50.700001 56.499599 48.900002 56.499599L 35.900002 56.499599C 35.099998 56.499599 34.099998 56.499599 33.299999 56.299599L 22.700001 54.499599L 11.5 54.499599M 14.5 20.519661L 14.5 26.519661M 11.5 23.519661L 17.5 23.519661M 25.3999 11.5L 25.3999 17.5M 22.3999 14.5L 28.3999 14.5M 53.5 15.51966L 53.5 21.519661M 50.5 18.519661L 56.5 18.519661"></path></g></g></g><g id="g-root-tx__4hb8s4puwhl3-stroke" data-item-order="0" transform="translate(662, 422)"></g><g id="g-root-tx__4kfm7opuv4lk-stroke" data-item-order="0" transform="translate(38, 458)"></g><g id="g-root-ic_left_dg2mgkpuwh6z-stroke" data-item-order="0" transform="translate(710, 494)"><g id="ic_left_dg2mgkpuwh6z-stroke" fill="none" stroke-linecap="round" stroke-linejoin="round" stroke-miterlimit="4" stroke="#92bd39" stroke-width="2"><g><path d="M 16 14L 16 54M 22 20L 38 20C 38 20 40 20 40 22L 40 28C 40 28 40 30 38 30L 22 30C 22 30 20 30 20 28L 20 22C 20 22 20 20 22 20M 22 36L 50 36C 50 36 52 36 52 38L 52 44C 52 44 52 46 50 46L 22 46C 22 46 20 46 20 44L 20 38C 20 38 20 36 22 36"></path></g></g></g><g id="g-root-tx__1qapmwkpuv2tl-stroke" data-item-order="0" transform="translate(38, 518)"></g><g id="g-root-tx__zmjnzopuwhz5-stroke" data-item-order="0" transform="translate(680, 554)"></g><g id="g-root-tx__mb35mcpuwjk2-stroke" data-item-order="0" transform="translate(662, 590)"></g></g></g><path id="w1qbz77ondie4u" d="M65.283 12.757a.35.35 0 0 0 .584.157l5.203-5.141-6.183 3.523.396 1.461zm-2.216-11.7a.35.35 0 0 0-.522.305v3.111l3.276-1.868-2.754-1.548zm3.728 2.105l-4.25 2.421v2.445l6.391-3.644-2.141-1.222zm4.708 3.303a.35.35 0 0 0 0-.609l-1.592-.9-7.365 4.199v1.782a.35.35 0 0 0 .523.305l8.435-4.777z M44.542 2.513c0-.433.355-.783.792-.783s.792.35.792.783-.355.783-.792.783-.792-.35-.792-.783zm59.171 0c0-.433.355-.783.792-.783s.792.35.792.783-.355.783-.792.783-.792-.35-.792-.783zm-85.951 7.636h-1.27v-.487c-.276.201-.864.609-1.881.609-1.202 0-2.274-.794-2.137-2.078.118-1.106 1.153-1.584 1.848-1.727l2.17-.345c0-.539-.29-.956-1.064-1.006s-1.21.305-1.571 1.017l-1.124-.605c1.218-2.631 5.029-1.764 5.029.414v4.207zm-1.27-2.86c.006.396-.062 1.112-.819 1.59-.587.37-1.841.299-1.903-.395-.049-.555.461-.791.906-.898l1.816-.297zm72.662 2.86h-1.27v-.487c-.276.201-.864.609-1.881.609-1.202 0-2.274-.794-2.137-2.078.118-1.106 1.153-1.584 1.848-1.727l2.17-.345c0-.539-.29-.956-1.064-1.006s-1.21.305-1.571 1.017l-1.124-.605c1.218-2.631 5.029-1.764 5.029.414v4.207zm-1.27-2.86c.006.396-.062 1.112-.82 1.59-.587.37-1.841.299-1.903-.395-.049-.555.461-.791.906-.898l1.816-.297zM99.096 10.149H97.85v-8.45h1.246v4.895l2.68-2.559h1.738l-2.633 2.535 2.715 3.578h-1.556l-2.077-2.707-.867.844v1.863zm6.053-6.114h-1.255v6.113h1.255V4.035zm-59.2 0h-1.255v6.113h1.255V4.035zm5.584 6.113V1.697h1.255v2.695c.361-.346 1-.485 1.47-.485 1.452 0 2.477 1.082 2.457 2.448v3.792h-1.27v-3.68c0-.408-.214-1.339-1.315-1.339-.968 0-1.342.756-1.342 1.339v3.681h-1.255zm-4.76-4.894V4.039h.621a.45.45 0 0 0 .45-.45v-.855h1.251v1.305h1.309v1.215h-1.309v3.109c0 .293.105.664.648.664.365 0 .531-.035.736-.07v1.137s-.361.113-.857.113c-1.398 0-1.777-1.051-1.777-1.788V5.254h-1.071zM36.528 4.039h-1.394l2.191 6.106h1.125l1.234-3.918 1.238 3.918h1.129l2.188-6.106h-1.383l-1.359 3.93-1.256-3.93h-1.124l-1.242 3.957-1.348-3.957zM26.212 7.141c-.02 1.566 1.187 3.129 3.223 3.129 1.566 0 2.383-.918 2.734-1.719L31.172 8c-.315.399-.801 1.094-1.738 1.094-1.145 0-1.825-.781-1.891-1.52h4.625c.074-.284.148-.995-.03-1.559-.336-1.064-1.221-2.102-2.839-2.102s-3.088 1.152-3.088 3.227zm1.363-.75h3.348c-.055-.43-.566-1.301-1.623-1.301a1.79 1.79 0 0 0-1.725 1.301zm-8.758.75c.038 1.758 1.277 3.133 3.145 3.133 1.074 0 1.723-.477 1.961-.672v.547h1.242V1.703h-1.258v2.888c-.414-.36-1.062-.68-1.93-.68-1.91 0-3.198 1.473-3.16 3.23zm1.309-.08c0 1.119.723 1.978 1.836 1.978a1.88 1.88 0 0 0 1.94-1.904c0-1.371-1.011-1.99-1.972-1.99s-1.805.798-1.805 1.916zm76.683-.028C96.771 5.275 95.532 3.9 93.664 3.9c-1.074 0-1.723.477-1.961.672v-.547h-1.242v8.22h1.258V9.583c.414.36 1.063.68 1.93.68 1.91 0 3.198-1.473 3.16-3.23zm-1.309.08c0-1.119-.723-1.978-1.836-1.978a1.88 1.88 0 0 0-1.94 1.904c0 1.371 1.011 1.99 1.972 1.99S95.5 8.231 95.5 7.113zM106.441 10.173V4.036h1.254v.382c.361-.346 1-.485 1.47-.485 1.452 0 2.477 1.082 2.457 2.448v3.792h-1.27V6.492c0-.408-.214-1.339-1.315-1.339-.969 0-1.342.756-1.342 1.339v3.681h-1.254zm-30.383-.021V1.824h1.084l4.215 5.777V1.824h1.32v8.328h-1.094l-4.207-5.796v5.796h-1.319zM5.24 10.149H4V2.377h1.014l2.664 3.597 2.654-3.592h1.03v7.766h-1.256V4.762L7.678 8.068 5.24 4.742v5.407z" transform="translate(20, 674)" fill="#80808088" stroke="none"></path></svg>