<?xml version="1.0" encoding="utf-8" standalone="yes"?>
<!DOCTYPE svg PUBLIC "-//W3C//DTD SVG 1.1//EN" "http://www.w3.org/Graphics/SVG/1.1/DTD/svg11.dtd">
<svg width="877" height="600" viewBox="0 0 877 600" style="fill:none;stroke:none;fill-rule:evenodd;clip-rule:evenodd;stroke-linecap:round;stroke-linejoin:round;stroke-miterlimit:1.5;" version="1.1" xmlns="http://www.w3.org/2000/svg" xmlns:xlink="http://www.w3.org/1999/xlink"><style class="text-font-style fontImports" data-font-family="Shantell Sans">@import url('https://fonts.googleapis.com/css2?family=Shantell+Sans:wght@300..800&amp;display=block');</style><g id="items" style="isolation: isolate"><g id="blend" style="mix-blend-mode: normal"><g id="g-root-cp_2_g-2_dgq2cjfvp7uq-fill" data-item-order="-426722" transform="translate(242, 266.09814453125)"><g id="cp_2_g-2_dgq2cjfvp7uq-fill" stroke="none" fill="#e9ffb9"><g><path d="M 41.0002 58L 10 106L 241.074 106L 287.598 58.0153L 241.057 10L 10.0001 10.0001L 41.0002 58Z"></path></g></g></g><g id="g-root-cp_3_g-3_4lpj6rfvp5ho-fill" data-item-order="-426718" transform="translate(242, 314.11181640625)"><g id="cp_3_g-3_4lpj6rfvp5ho-fill" stroke="none" fill="#d1f4ff"><g><path d="M 41.0002 153.985L 10 201.985L 172.523 201.985C 212.569 201.985 250.905 185.757 278.78 157.007L 359.466 73.7876C 369.26 63.6862 382.73 57.9847 396.8 57.9847L 396.769 57.9847C 356.717 57.9847 318.375 41.7516 290.499 12.9923L 287.598 10L 209.857 90.1817C 200.063 100.2832 186.593 105.9847 172.523 105.9847L 10.0001 105.9851L 41.0002 153.985Z"></path></g></g></g><g id="g-root-cp_1_g-1_5w12bfvp69y-fill" data-item-order="-426714" transform="translate(242, 122.22705078125)"><g id="cp_1_g-1_5w12bfvp69y-fill" stroke="none" fill="#c8ffe5"><g><path d="M 396.893 250C 356.841 250 318.499 233.767 290.623 205.008L 209.978 121.808C 200.184 111.704 186.712 106 172.64 106L 10 105.9999L 41.0002 57.9999L 10.0001 10L 172.64 10C 212.692 10 251.034 26.2331 278.91 54.9924L 359.555 138.192C 369.35 148.296 382.821 154 396.893 154L 578 153.87L 609 201.87L 578 249.87C 521.734 249.87 453.25 250 396.893 250Z"></path></g></g></g><g id="g-root-tx__1ur6kwzfvp6v4-fill" data-item-order="0" transform="translate(211.5, 38)"><g id="tx__1ur6kwzfvp6v4-fill" stroke="none" fill="#484848"><g><text style="font: bold 25px &quot;Shantell Sans&quot;, cursive; white-space: pre;" font-weight="bold" font-size="25px" font-family="'Shantell Sans', cursive"><tspan x="13.5" y="44.2" dominant-baseline="ideographic">パーソナライズされた映画体験の構築</tspan></text></g></g></g><g id="g-root-tx_1_18kpjdvfvp62x-fill" data-item-order="0" transform="translate(44, 152)"><g id="tx_1_18kpjdvfvp62x-fill" stroke="none" fill="#3cc583"><g><text style="font: bold 30px &quot;Shantell Sans&quot;, cursive; white-space: pre;" font-weight="bold" font-size="30px" font-family="'Shantell Sans', cursive"><tspan x="15.18" y="47.6" dominant-baseline="ideographic">1</tspan></text></g></g></g><g id="g-root-tx__144w19ffvp6v6-fill" data-item-order="0" transform="translate(86, 140.22705078125)"><g id="tx__144w19ffvp6v6-fill" stroke="none" fill="#484848"><g><text style="font: 15px &quot;Shantell Sans&quot;, cursive; white-space: pre;" font-size="15px" font-family="'Shantell Sans', cursive"><tspan x="12" y="31.4" dominant-baseline="ideographic">ユーザーの映画好み</tspan><tspan x="12" y="49.4" dominant-baseline="ideographic">に基づく推薦精度向</tspan><tspan x="12" y="67.4" dominant-baseline="ideographic">上。</tspan></text></g></g></g><g id="g-root-tx__1lqjrz7fvqmf8-fill" data-item-order="0" transform="translate(290, 158.22705078125)"><g id="tx__1lqjrz7fvqmf8-fill" stroke="none" fill="#3cc583"><g><text style="font: bold 20px &quot;Shantell Sans&quot;, cursive; white-space: pre;" font-weight="bold" font-size="20px" font-family="'Shantell Sans', cursive"><tspan x="12" y="35.6" dominant-baseline="ideographic">ユーザーの好み</tspan></text></g></g></g><g id="g-root-tx_2_qu1zz7fvp5ab-fill" data-item-order="0" transform="translate(38, 296)"><g id="tx_2_qu1zz7fvp5ab-fill" stroke="none" fill="#92bd39"><g><text style="font: bold 30px &quot;Shantell Sans&quot;, cursive; white-space: pre;" font-weight="bold" font-size="30px" font-family="'Shantell Sans', cursive"><tspan x="17.5" y="47.6" dominant-baseline="ideographic">2</tspan></text></g></g></g><g id="g-root-tx__hyezqbfvp630-fill" data-item-order="0" transform="translate(86, 284.22705078125)"><g id="tx__hyezqbfvp630-fill" stroke="none" fill="#484848"><g><text style="font: 15px &quot;Shantell Sans&quot;, cursive; white-space: pre;" font-size="15px" font-family="'Shantell Sans', cursive"><tspan x="12" y="31.4" dominant-baseline="ideographic">映画間の類似性を分</tspan><tspan x="12" y="49.4" dominant-baseline="ideographic">析し推薦精度を向</tspan><tspan x="12" y="67.4" dominant-baseline="ideographic">上。</tspan></text></g></g></g><g id="g-root-tx__1cvj8tffvqk25-fill" data-item-order="0" transform="translate(290, 302.22705078125)"><g id="tx__1cvj8tffvqk25-fill" stroke="none" fill="#92bd39"><g><text style="font: bold 20px &quot;Shantell Sans&quot;, cursive; white-space: pre;" font-weight="bold" font-size="20px" font-family="'Shantell Sans', cursive"><tspan x="12" y="35.6" dominant-baseline="ideographic">映画の類似性</tspan></text></g></g></g><g id="g-root-ic_view_1qd8i1vfvp5vz-fill" data-item-order="0" transform="translate(758, 290.22705078125)"></g><g id="g-root-tx__4gpqhvfvqk96-fill" data-item-order="0" transform="translate(602, 302.22705078125)"><g id="tx__4gpqhvfvqk96-fill" stroke="none" fill="#484848"><g><text style="font: bold 20px &quot;Shantell Sans&quot;, cursive; white-space: pre;" font-weight="bold" font-size="20px" font-family="'Shantell Sans', cursive"><tspan x="12" y="35.6" dominant-baseline="ideographic">映画推薦の向上</tspan></text></g></g></g><g id="g-root-tx_3_4myhczfvp7nx-fill" data-item-order="0" transform="translate(38, 440)"><g id="tx_3_4myhczfvp7nx-fill" stroke="none" fill="#1eabda"><g><text style="font: bold 30px &quot;Shantell Sans&quot;, cursive; white-space: pre;" font-weight="bold" font-size="30px" font-family="'Shantell Sans', cursive"><tspan x="17.5" y="47.6" dominant-baseline="ideographic">3</tspan></text></g></g></g><g id="g-root-tx__7rgbnfvp5ae-fill" data-item-order="0" transform="translate(86, 428.22705078125)"><g id="tx__7rgbnfvp5ae-fill" stroke="none" fill="#484848"><g><text style="font: 15px &quot;Shantell Sans&quot;, cursive; white-space: pre;" font-size="15px" font-family="'Shantell Sans', cursive"><tspan x="12" y="31.4" dominant-baseline="ideographic">ベクトル埋め込みで</tspan><tspan x="12" y="49.4" dominant-baseline="ideographic">映画の類似性を定量</tspan><tspan x="12" y="67.4" dominant-baseline="ideographic">化。</tspan></text></g></g></g><g id="g-root-tx__18fpqozfvqkue-fill" data-item-order="0" transform="translate(290, 434.22705078125)"><g id="tx__18fpqozfvqkue-fill" stroke="none" fill="#1eabda"><g><text style="font: bold 20px &quot;Shantell Sans&quot;, cursive; white-space: pre;" font-weight="bold" font-size="20px" font-family="'Shantell Sans', cursive"><tspan x="12" y="35.6" dominant-baseline="ideographic">ベクトル埋め込</tspan><tspan x="12" y="59.6" dominant-baseline="ideographic">み</tspan></text></g></g></g><g id="g-root-cp_2_g-2_dgq2cjfvp7uq-stroke" data-item-order="-426722" transform="translate(242, 266.09814453125)"><g id="cp_2_g-2_dgq2cjfvp7uq-stroke" fill="none" stroke-linecap="round" stroke-linejoin="round" stroke-miterlimit="4" stroke="#ffffff" stroke-width="2"><g><path d="M 41.0002 58L 10 106L 241.0738 106L 287.598 58.0153L 241.057 10L 10.0001 10.0001L 41.0002 58Z"></path></g></g></g><g id="g-root-cp_3_g-3_4lpj6rfvp5ho-stroke" data-item-order="-426718" transform="translate(242, 314.11181640625)"><g id="cp_3_g-3_4lpj6rfvp5ho-stroke" fill="none" stroke-linecap="round" stroke-linejoin="round" stroke-miterlimit="4" stroke="#ffffff" stroke-width="2"><g><path d="M 41.0002 153.9849L 10 201.9849L 172.5235 201.9847C 212.5686 201.9847 250.9046 185.7573 278.7798 157.007L 359.4663 73.7876C 369.2603 63.6862 382.7296 57.9847 396.7995 57.9847L 396.7691 57.9847C 356.7169 57.9847 318.3748 41.7516 290.4985 12.9923L 287.5981 10L 209.8568 90.1817C 200.0628 100.2832 186.5934 105.9847 172.5235 105.9847L 10.0001 105.9851L 41.0002 153.9849Z"></path></g></g></g><g id="g-root-cp_1_g-1_5w12bfvp69y-stroke" data-item-order="-426714" transform="translate(242, 122.22705078125)"><g id="cp_1_g-1_5w12bfvp69y-stroke" fill="none" stroke-linecap="round" stroke-linejoin="round" stroke-miterlimit="4" stroke="#ffffff" stroke-width="2"><g><path d="M 396.8935 250C 356.8413 250 318.4992 233.7669 290.6229 205.0076L 209.978 121.8081C 200.1837 111.7035 186.7121 106 172.6397 106L 10 105.9999L 41.0002 57.9999L 10.0001 10L 172.6397 10C 212.6919 10 251.034 26.2331 278.9103 54.9924L 359.5552 138.1919C 369.3495 148.2965 382.821 154 396.8935 154L 578.0001 153.8702L 609.0002 201.8701L 578 249.8701C 521.7335 249.8701 453.2504 250 396.8935 250Z"></path></g></g></g><g id="g-root-tx__1ur6kwzfvp6v4-stroke" data-item-order="0" transform="translate(211.5, 38)"></g><g id="g-root-tx_1_18kpjdvfvp62x-stroke" data-item-order="0" transform="translate(44, 152)"></g><g id="g-root-tx__144w19ffvp6v6-stroke" data-item-order="0" transform="translate(86, 140.22705078125)"></g><g id="g-root-tx__1lqjrz7fvqmf8-stroke" data-item-order="0" transform="translate(290, 158.22705078125)"></g><g id="g-root-tx_2_qu1zz7fvp5ab-stroke" data-item-order="0" transform="translate(38, 296)"></g><g id="g-root-tx__hyezqbfvp630-stroke" data-item-order="0" transform="translate(86, 284.22705078125)"></g><g id="g-root-tx__1cvj8tffvqk25-stroke" data-item-order="0" transform="translate(290, 302.22705078125)"></g><g id="g-root-ic_view_1qd8i1vfvp5vz-stroke" data-item-order="0" transform="translate(758, 290.22705078125)"><g id="ic_view_1qd8i1vfvp5vz-stroke" fill="none" stroke-linecap="round" stroke-linejoin="round" stroke-miterlimit="4" stroke="#484848" stroke-width="2"><g><path d="M 56.271385 38.331593C 56.271385 39.436192 55.375984 40.331593 54.271389 40.331593L 13.728459 40.331593C 12.623899 40.331593 11.728457 39.436192 11.728457 38.331593L 11.728457 16.824219C 11.728457 15.719638 12.623879 14.824219 13.728459 14.824219L 54.271389 14.824219C 55.375984 14.824219 56.271385 15.719638 56.271385 16.824219L 56.271385 38.331593ZM 18.544918 51.175789C 18.544918 52.280388 17.649498 53.175789 16.544918 53.175789L 13.729479 53.175789C 12.624899 53.175789 11.729475 52.280388 11.729475 51.175789L 11.729475 48.149788C 11.729475 47.045387 12.624899 46.149788 13.729479 46.149788L 16.544918 46.149788C 17.649498 46.149788 18.544918 47.045387 18.544918 48.149788L 18.544918 51.175789ZM 31.119194 51.175789C 31.119194 52.280388 30.223795 53.175789 29.119135 53.175789L 26.303694 53.175789C 25.199116 53.175789 24.303696 52.280388 24.303696 51.175789L 24.303696 48.149788C 24.303696 47.045387 25.199116 46.149788 26.303694 46.149788L 29.119135 46.149788C 30.223795 46.149788 31.119194 47.045387 31.119194 48.149788L 31.119194 51.175789ZM 43.697189 51.175789C 43.697189 52.280388 42.801788 53.175789 41.697193 53.175789L 38.88179 53.175789C 37.777191 53.175789 36.88179 52.280388 36.88179 51.175789L 36.88179 48.149788C 36.88179 47.045387 37.777191 46.149788 38.88179 46.149788L 41.697193 46.149788C 42.801788 46.149788 43.697189 47.045387 43.697189 48.149788L 43.697189 51.175789ZM 56.271385 51.175789C 56.271385 52.280388 55.375984 53.175789 54.271389 53.175789L 51.45599 53.175789C 50.351387 53.175789 49.45599 52.280388 49.45599 51.175789L 49.45599 48.149788C 49.45599 47.045387 50.351387 46.149788 51.45599 46.149788L 54.271389 46.149788C 55.375984 46.149788 56.271385 47.045387 56.271385 48.149788L 56.271385 51.175789Z"></path></g></g></g><g id="g-root-tx__4gpqhvfvqk96-stroke" data-item-order="0" transform="translate(602, 302.22705078125)"></g><g id="g-root-tx_3_4myhczfvp7nx-stroke" data-item-order="0" transform="translate(38, 440)"></g><g id="g-root-tx__7rgbnfvp5ae-stroke" data-item-order="0" transform="translate(86, 428.22705078125)"></g><g id="g-root-tx__18fpqozfvqkue-stroke" data-item-order="0" transform="translate(290, 434.22705078125)"></g></g></g><path id="wmcyrabh9lq87" d="M65.283 12.757a.35.35 0 0 0 .584.157l5.203-5.141-6.183 3.523.396 1.461zm-2.216-11.7a.35.35 0 0 0-.522.305v3.111l3.276-1.868-2.754-1.548zm3.728 2.105l-4.25 2.421v2.445l6.391-3.644-2.141-1.222zm4.708 3.303a.35.35 0 0 0 0-.609l-1.592-.9-7.365 4.199v1.782a.35.35 0 0 0 .523.305l8.435-4.777z M44.542 2.513c0-.433.355-.783.792-.783s.792.35.792.783-.355.783-.792.783-.792-.35-.792-.783zm59.171 0c0-.433.355-.783.792-.783s.792.35.792.783-.355.783-.792.783-.792-.35-.792-.783zm-85.951 7.636h-1.27v-.487c-.276.201-.864.609-1.881.609-1.202 0-2.274-.794-2.137-2.078.118-1.106 1.153-1.584 1.848-1.727l2.17-.345c0-.539-.29-.956-1.064-1.006s-1.21.305-1.571 1.017l-1.124-.605c1.218-2.631 5.029-1.764 5.029.414v4.207zm-1.27-2.86c.006.396-.062 1.112-.819 1.59-.587.37-1.841.299-1.903-.395-.049-.555.461-.791.906-.898l1.816-.297zm72.662 2.86h-1.27v-.487c-.276.201-.864.609-1.881.609-1.202 0-2.274-.794-2.137-2.078.118-1.106 1.153-1.584 1.848-1.727l2.17-.345c0-.539-.29-.956-1.064-1.006s-1.21.305-1.571 1.017l-1.124-.605c1.218-2.631 5.029-1.764 5.029.414v4.207zm-1.27-2.86c.006.396-.062 1.112-.82 1.59-.587.37-1.841.299-1.903-.395-.049-.555.461-.791.906-.898l1.816-.297zM99.096 10.149H97.85v-8.45h1.246v4.895l2.68-2.559h1.738l-2.633 2.535 2.715 3.578h-1.556l-2.077-2.707-.867.844v1.863zm6.053-6.114h-1.255v6.113h1.255V4.035zm-59.2 0h-1.255v6.113h1.255V4.035zm5.584 6.113V1.697h1.255v2.695c.361-.346 1-.485 1.47-.485 1.452 0 2.477 1.082 2.457 2.448v3.792h-1.27v-3.68c0-.408-.214-1.339-1.315-1.339-.968 0-1.342.756-1.342 1.339v3.681h-1.255zm-4.76-4.894V4.039h.621a.45.45 0 0 0 .45-.45v-.855h1.251v1.305h1.309v1.215h-1.309v3.109c0 .293.105.664.648.664.365 0 .531-.035.736-.07v1.137s-.361.113-.857.113c-1.398 0-1.777-1.051-1.777-1.788V5.254h-1.071zM36.528 4.039h-1.394l2.191 6.106h1.125l1.234-3.918 1.238 3.918h1.129l2.188-6.106h-1.383l-1.359 3.93-1.256-3.93h-1.124l-1.242 3.957-1.348-3.957zM26.212 7.141c-.02 1.566 1.187 3.129 3.223 3.129 1.566 0 2.383-.918 2.734-1.719L31.172 8c-.315.399-.801 1.094-1.738 1.094-1.145 0-1.825-.781-1.891-1.52h4.625c.074-.284.148-.995-.03-1.559-.336-1.064-1.221-2.102-2.839-2.102s-3.088 1.152-3.088 3.227zm1.363-.75h3.348c-.055-.43-.566-1.301-1.623-1.301a1.79 1.79 0 0 0-1.725 1.301zm-8.758.75c.038 1.758 1.277 3.133 3.145 3.133 1.074 0 1.723-.477 1.961-.672v.547h1.242V1.703h-1.258v2.888c-.414-.36-1.062-.68-1.93-.68-1.91 0-3.198 1.473-3.16 3.23zm1.309-.08c0 1.119.723 1.978 1.836 1.978a1.88 1.88 0 0 0 1.94-1.904c0-1.371-1.011-1.99-1.972-1.99s-1.805.798-1.805 1.916zm76.683-.028C96.771 5.275 95.532 3.9 93.664 3.9c-1.074 0-1.723.477-1.961.672v-.547h-1.242v8.22h1.258V9.583c.414.36 1.063.68 1.93.68 1.91 0 3.198-1.473 3.16-3.23zm-1.309.08c0-1.119-.723-1.978-1.836-1.978a1.88 1.88 0 0 0-1.94 1.904c0 1.371 1.011 1.99 1.972 1.99S95.5 8.231 95.5 7.113zM106.441 10.173V4.036h1.254v.382c.361-.346 1-.485 1.47-.485 1.452 0 2.477 1.082 2.457 2.448v3.792h-1.27V6.492c0-.408-.214-1.339-1.315-1.339-.969 0-1.342.756-1.342 1.339v3.681h-1.254zm-30.383-.021V1.824h1.084l4.215 5.777V1.824h1.32v8.328h-1.094l-4.207-5.796v5.796h-1.319zM5.24 10.149H4V2.377h1.014l2.664 3.597 2.654-3.592h1.03v7.766h-1.256V4.762L7.678 8.068 5.24 4.742v5.407z" transform="translate(741, 566)" fill="#80808088" stroke="none"></path></svg>