<?xml version="1.0" encoding="utf-8" standalone="yes"?>
<!DOCTYPE svg PUBLIC "-//W3C//DTD SVG 1.1//EN" "http://www.w3.org/Graphics/SVG/1.1/DTD/svg11.dtd">
<svg width="744" height="576" viewBox="0 0 744 576" style="fill:none;stroke:none;fill-rule:evenodd;clip-rule:evenodd;stroke-linecap:round;stroke-linejoin:round;stroke-miterlimit:1.5;" version="1.1" xmlns="http://www.w3.org/2000/svg" xmlns:xlink="http://www.w3.org/1999/xlink"><style class="text-font-style fontImports" data-font-family="Roboto">@import url('https://fonts.googleapis.com/css2?family=Roboto:wght@400;700&amp;display=block');</style><g id="items" style="isolation: isolate"><g id="blend" style="mix-blend-mode: normal"><g id="g-root-cp_3_g-3_1q6da2shjqyvc-fill" data-item-order="-334072" transform="translate(41, 332)"><g id="cp_3_g-3_1q6da2shjqyvc-fill" stroke="none" fill="#f4ffdc"><g><path d="M 25.2246 23.1875C 25.0807 23.1635 24.9344 23.1395 24.7859 23.1151C 21.8374 22.6315 17.9612 21.9956 12.725 18.1875C 10.1861 16.341 9.7448 13.0739 10.114 10L 218.225 10L 218.225 28.3552C 237.842 31.8915 252.725 49.0515 252.725 69.6875C 252.725 90.3235 237.842 107.4835 218.225 111.02L 218.225 167.188L 142.225 167.188C 141.891 164.354 141.125 157.587 140.725 153.188C 140.225 147.688 137.725 135.688 136.225 132.188C 134.725 128.688 132.225 125.188 126.225 121.688C 120.225 118.188 114.225 117.688 106.7246 117.688C 103.6054 117.688 100.8321 118.12 97.3616 118.661C 92.4876 119.421 86.2384 120.395 75.7246 120.688C 57.9994 121.18 50.4561 114.884 47.3652 112.305L 47.2246 112.188C 44.2246 109.6875 43.7246 99.1875 45.2246 91.6875C 46.4115 85.7528 46.0331 84.2011 45.5757 82.3256C 45.4551 81.8309 45.329 81.3136 45.2246 80.6875C 44.9059 78.7751 43.3681 76.8627 41.5179 74.5618C 40.4656 73.2532 39.3122 71.8189 38.2246 70.1875C 35.8246 66.5875 36.5579 62.3542 37.2246 60.6875C 38.4589 58.6303 38.6775 57.9274 38.9949 56.9071C 39.0632 56.6875 39.136 56.4532 39.2246 56.1875C 39.5336 55.2604 38.3148 54.7154 36.6304 53.9621C 35.5894 53.4965 34.3705 52.9514 33.2246 52.1875C 30.8246 50.5875 30.2246 46.8542 30.2246 45.1875L 30.2246 28.6875C 30.2246 25.6875 28.2246 23.6875 25.2246 23.1875ZM 210.5 105C 230.106 105 246 89.1061 246 69.5C 246 49.8939 230.106 34 210.5 34C 190.894 34 175 49.8939 175 69.5C 175 89.1061 190.894 105 210.5 105Z"></path></g></g></g><g id="g-root-cp_2_g-2_1lqjrychjqznm-fill" data-item-order="-334068" transform="translate(41.114013671875, 212)"><g id="cp_2_g-2_1lqjrychjqznm-fill" stroke="none" fill="#e8f9ff"><g><path d="M 26.6107 50.1875C 25.0107 46.5875 24.9442 28.0208 25.1109 19.1875C 25.0829 16.7193 25.322 13.612 25.9221 10L 218.111 10L 218.111 28.3552C 237.728 31.8915 252.611 49.0515 252.611 69.6875C 252.611 90.3235 237.728 107.4835 218.111 111.02L 218.111 130L 10 130C 10.2706 127.747 10.9766 125.597 11.6111 124.188C 14.4444 117.854 21.1111 103.5875 25.1111 97.1875C 30.1111 89.1875 33.6111 78.1875 34.6111 71.6875C 35.3779 66.7033 31.4406 59.3672 28.6608 54.1878C 27.8154 52.6126 27.0771 51.2369 26.6107 50.1875ZM 210.386 105C 229.992 105 245.886 89.1061 245.886 69.5C 245.886 49.8939 229.992 34 210.386 34C 190.78 34 174.886 49.8939 174.886 69.5C 174.886 89.1061 190.78 105 210.386 105Z"></path></g></g></g><g id="g-root-cp_1_g-1_1cvj8skhjqxak-fill" data-item-order="-334064" transform="translate(57.0360107421875, 108)"><g id="cp_1_g-1_1cvj8skhjqxak-fill" stroke="none" fill="#e3fff2"><g><path d="M 56.6888 39.6865C 95.0888 8.0865 157.022 7.8532 183.189 11.6865L 188.091 12.2028C 190.24 11.8636 192.444 11.6875 194.689 11.6875C 217.885 11.6875 236.689 30.4915 236.689 53.6875C 236.689 74.3235 221.806 91.4835 202.189 95.0198L 202.189 114L 10 114C 12.9661 96.1483 24.7509 65.9688 56.6888 39.6865ZM 194.464 89C 214.07 89 229.964 73.1061 229.964 53.5C 229.964 33.8939 214.07 18 194.464 18C 174.858 18 158.964 33.8939 158.964 53.5C 158.964 73.1061 174.858 89 194.464 89Z"></path></g></g></g><g id="g-root-tx_ai_18fpqo4hjqy2u-fill" data-item-order="0" transform="translate(266, 38)"><g id="tx_ai_18fpqo4hjqy2u-fill" stroke="none" fill="#484848"><g><text style="font: 20px Roboto, sans-serif; white-space: pre;" font-size="20px" font-family="Roboto, sans-serif"><tspan x="16.76" y="34" dominant-baseline="ideographic">生成AIの主要な特徴</tspan></text></g></g></g><g id="g-root-ic_cadm_4hyon8hjqznt-fill" data-item-order="0" transform="translate(218, 128)"></g><g id="g-root-tx__m98p50hjqxan-fill" data-item-order="0" transform="translate(302, 122)"><g id="tx__m98p50hjqxan-fill" stroke="none" fill="#3cc583"><g><text style="font: bold 20px Roboto, sans-serif; white-space: pre;" font-weight="bold" font-size="20px" font-family="Roboto, sans-serif"><tspan x="12" y="34" dominant-baseline="ideographic">コンテンツ生成</tspan></text></g></g></g><g id="g-root-tx__ddlow4hjqyv4-fill" data-item-order="0" transform="translate(302, 158)"><g id="tx__ddlow4hjqyv4-fill" stroke="none" fill="#484848"><g><text style="font: 15px Roboto, sans-serif; white-space: pre;" font-size="15px" font-family="Roboto, sans-serif"><tspan x="12" y="30.6" dominant-baseline="ideographic">テキスト、画像、音楽などの作成</tspan></text></g></g></g><g id="g-root-ic_2_dilhl0hjqy9w-fill" data-item-order="0" transform="translate(218, 248)"></g><g id="g-root-tx__144w18khjqy9u-fill" data-item-order="0" transform="translate(302, 242)"><g id="tx__144w18khjqy9u-fill" stroke="none" fill="#1eabda"><g><text style="font: bold 20px Roboto, sans-serif; white-space: pre;" font-weight="bold" font-size="20px" font-family="Roboto, sans-serif"><tspan x="12" y="34" dominant-baseline="ideographic">大規模なデータセットでの学習</tspan></text></g></g></g><g id="g-root-tx__qtfiv8hjqzur-fill" data-item-order="0" transform="translate(302, 278)"><g id="tx__qtfiv8hjqzur-fill" stroke="none" fill="#484848"><g><text style="font: 15px Roboto, sans-serif; white-space: pre;" font-size="15px" font-family="Roboto, sans-serif"><tspan x="12" y="30.6" dominant-baseline="ideographic">大量のデータでのトレーニング</tspan></text></g></g></g><g id="g-root-ic_stre_13zux5gddbyfb-fill" data-item-order="0" transform="translate(218, 368)"></g><g id="g-root-tx__uwycddbxu5-fill" data-item-order="0" transform="translate(302, 362)"><g id="tx__uwycddbxu5-fill" stroke="none" fill="#92bd39"><g><text style="font: bold 20px Roboto, sans-serif; white-space: pre;" font-weight="bold" font-size="20px" font-family="Roboto, sans-serif"><tspan x="12" y="34" dominant-baseline="ideographic">パターン認識</tspan></text></g></g></g><g id="g-root-tx__1lqigk4ddbz7y-fill" data-item-order="0" transform="translate(302, 398)"><g id="tx__1lqigk4ddbz7y-fill" stroke="none" fill="#484848"><g><text style="font: 15px Roboto, sans-serif; white-space: pre;" font-size="15px" font-family="Roboto, sans-serif"><tspan x="12" y="30.6" dominant-baseline="ideographic">学習したパターンの適用</tspan></text></g></g></g><g id="g-root-cp_3_g-3_1q6da2shjqyvc-stroke" data-item-order="-334072" transform="translate(41, 332)"><g id="cp_3_g-3_1q6da2shjqyvc-stroke" fill="none" stroke-linecap="round" stroke-linejoin="round" stroke-miterlimit="4" stroke="#92bd39" stroke-width="2"><g><path d="M 25.2246 23.1875C 25.0807 23.1635 24.9344 23.1395 24.7859 23.1151C 21.8374 22.6315 17.9611 21.9956 12.725 18.1875C 10.1861 16.341 9.7448 13.0739 10.114 10L 218.2246 10L 218.2246 28.3552C 237.842 31.8915 252.7246 49.0515 252.7246 69.6875C 252.7246 90.3235 237.842 107.4835 218.2246 111.0198L 218.2246 167.1875L 142.2246 167.1875C 141.8913 164.3542 141.1246 157.5875 140.7246 153.1875C 140.2246 147.6875 137.7246 135.6875 136.2246 132.1875C 134.7246 128.6875 132.2246 125.1875 126.2246 121.6875C 120.2246 118.1875 114.2246 117.6875 106.7246 117.6875C 103.6054 117.6875 100.8321 118.1199 97.3616 118.6611C 92.4876 119.421 86.2384 120.3954 75.7246 120.6875C 57.9994 121.1799 50.4561 114.8844 47.3652 112.3048L 47.2246 112.1875C 44.2246 109.6875 43.7246 99.1875 45.2246 91.6875C 46.4115 85.7528 46.0331 84.2011 45.5757 82.3256C 45.4551 81.8309 45.329 81.3136 45.2246 80.6875C 44.9059 78.7751 43.3681 76.8627 41.5179 74.5618C 40.4656 73.2532 39.3122 71.8189 38.2246 70.1875C 35.8246 66.5875 36.5579 62.3542 37.2246 60.6875C 38.4589 58.6303 38.6775 57.9274 38.9949 56.9071C 39.0632 56.6875 39.136 56.4532 39.2246 56.1875C 39.5336 55.2604 38.3148 54.7154 36.6304 53.9621C 35.5894 53.4965 34.3705 52.9514 33.2246 52.1875C 30.8246 50.5875 30.2246 46.8542 30.2246 45.1875L 30.2246 28.6875C 30.2246 25.6875 28.2246 23.6875 25.2246 23.1875ZM 210.5 105C 230.1061 105 246 89.1061 246 69.5C 246 49.8939 230.1061 34 210.5 34C 190.8939 34 175 49.8939 175 69.5C 175 89.1061 190.8939 105 210.5 105Z"></path></g></g></g><g id="g-root-cp_2_g-2_1lqjrychjqznm-stroke" data-item-order="-334068" transform="translate(41.114013671875, 212)"><g id="cp_2_g-2_1lqjrychjqznm-stroke" fill="none" stroke-linecap="round" stroke-linejoin="round" stroke-miterlimit="4" stroke="#1eabda" stroke-width="2"><g><path d="M 26.6107 50.1875C 25.0107 46.5875 24.9442 28.0208 25.1109 19.1875C 25.0829 16.7193 25.322 13.612 25.9221 10L 218.1106 10L 218.1106 28.3552C 237.7281 31.8915 252.6106 49.0515 252.6106 69.6875C 252.6106 90.3235 237.7281 107.4835 218.1106 111.0198L 218.1106 130L 10 130C 10.2706 127.7468 10.9766 125.5974 11.6111 124.1875C 14.4444 117.8542 21.1111 103.5875 25.1111 97.1875C 30.1111 89.1875 33.6111 78.1875 34.6111 71.6875C 35.3779 66.7033 31.4406 59.3672 28.6608 54.1878C 27.8154 52.6126 27.0771 51.2369 26.6107 50.1875ZM 210.3857 105C 229.9919 105 245.8857 89.1061 245.8857 69.5C 245.8857 49.8939 229.9919 34 210.3857 34C 190.7796 34 174.8857 49.8939 174.8857 69.5C 174.8857 89.1061 190.7796 105 210.3857 105Z"></path></g></g></g><g id="g-root-cp_1_g-1_1cvj8skhjqxak-stroke" data-item-order="-334064" transform="translate(57.0360107421875, 108)"><g id="cp_1_g-1_1cvj8skhjqxak-stroke" fill="none" stroke-linecap="round" stroke-linejoin="round" stroke-miterlimit="4" stroke="#3cc583" stroke-width="2"><g><path d="M 56.6888 39.6865C 95.0888 8.0865 157.0222 7.8532 183.1888 11.6865L 188.0906 12.2028C 190.2401 11.8636 192.4437 11.6875 194.6886 11.6875C 217.8845 11.6875 236.6886 30.4915 236.6886 53.6875C 236.6886 74.3235 221.806 91.4835 202.1886 95.0198L 202.1886 114L 10 114C 12.966 96.1483 24.7509 65.9688 56.6888 39.6865ZM 194.4639 89C 214.07 89 229.9639 73.1061 229.9639 53.5C 229.9639 33.8939 214.07 18 194.4639 18C 174.8578 18 158.9639 33.8939 158.9639 53.5C 158.9639 73.1061 174.8578 89 194.4639 89Z"></path></g></g></g><g id="g-root-tx_ai_18fpqo4hjqy2u-stroke" data-item-order="0" transform="translate(266, 38)"></g><g id="g-root-ic_cadm_4hyon8hjqznt-stroke" data-item-order="0" transform="translate(218, 128)"><g id="ic_cadm_4hyon8hjqznt-stroke" fill="none" stroke-linecap="round" stroke-linejoin="round" stroke-miterlimit="4" stroke="#3cc583" stroke-width="2"><g><path d="M 13 11L 55 11C 55 11 57 11 57 13L 57 55C 57 55 57 57 55 57L 13 57C 13 57 11 57 11 55L 11 13C 11 13 11 11 13 11M 24 48L 44 48M 32 28.002001C 31.382 26.256001 29.459999 25.001999 27.5 25.001999C 25.014719 25.001999 23 27.016718 23 29.502001L 23 38.501999C 23 40.987282 25.014719 43.001999 27.5 43.001999C 29.459999 43.001999 31.382 41.75 32 40.001999M 44.5 43L 44.5 25M 44.5 37.5C 44.5 35.014717 42.485283 33 40 33C 37.514717 33 35.5 35.014717 35.5 37.5L 35.5 38.5C 35.5 40.985283 37.514717 43 40 43C 42.485283 43 44.5 40.985283 44.5 38.5L 44.5 37.5Z"></path></g></g></g><g id="g-root-tx__m98p50hjqxan-stroke" data-item-order="0" transform="translate(302, 122)"></g><g id="g-root-tx__ddlow4hjqyv4-stroke" data-item-order="0" transform="translate(302, 158)"></g><g id="g-root-ic_2_dilhl0hjqy9w-stroke" data-item-order="0" transform="translate(218, 248)"><g id="ic_2_dilhl0hjqy9w-stroke" fill="none" stroke-linecap="round" stroke-linejoin="round" stroke-miterlimit="4" stroke="#1eabda" stroke-width="2"><g><path d="M 19.5 31.0002C 23.91828 31.0002 27.5 29.56756 27.5 27.80024C 27.5 26.03294 23.91828 24.600239 19.5 24.600239C 15.08172 24.600239 11.5 26.03294 11.5 27.80024C 11.5 29.56756 15.08172 31.0002 19.5 31.0002ZM 11.5 27.79994L 11.5 40.599998C 11.5 42.400002 15.1 43.799999 19.5 43.799999C 23.9 43.799999 27.5 42.400002 27.5 40.599998L 27.5 27.79994M 51.202801 16.746601C 54.030602 16.746601 56.3228 15.50494 56.3228 13.97328C 56.3228 12.4416 54.030602 11.199936 51.202801 11.199936C 48.375198 11.199936 46.082802 12.4416 46.082802 13.97328C 46.082802 15.50494 48.375198 16.746601 51.202801 16.746601ZM 46.082802 13.97338L 46.082802 21.2267C 46.082802 22.720039 48.4296 24.00004 51.202801 24.00004C 53.9762 24.00004 56.3228 22.720039 56.3228 21.2267L 56.3228 13.97338M 51.202801 33.360199C 54.030602 33.360199 56.3228 32.118401 56.3228 30.5868C 56.3228 29.05514 54.030602 27.81348 51.202801 27.81348C 48.375198 27.81348 46.082802 29.05514 46.082802 30.5868C 46.082802 32.118401 48.375198 33.360199 51.202801 33.360199ZM 46.082802 30.587L 46.082802 37.840202C 46.082802 39.333599 48.4296 40.613602 51.202801 40.613602C 53.9762 40.613602 56.3228 39.333599 56.3228 37.840202L 56.3228 30.587M 51.202801 49.5466C 54.030602 49.5466 56.3228 48.305 56.3228 46.773201C 56.3228 45.2416 54.030602 44 51.202801 44C 48.375198 44 46.082802 45.2416 46.082802 46.773201C 46.082802 48.305 48.375198 49.5466 51.202801 49.5466ZM 46.082802 46.773399L 46.082802 54.026798C 46.082802 55.52 48.4296 56.799999 51.202801 56.799999C 53.9762 56.799999 56.3228 55.52 56.3228 54.026798L 56.3228 46.773399M 41.291599 17.4L 37.291599 17.4L 37.291599 50.599998L 41.291599 50.599998M 41.291599 34L 32.291599 34M 11.5 34.262199C 11.5 35.9538 14.959459 37.337601 19.50004 37.337601C 24.0406 37.337601 27.500059 35.9538 27.500059 34.262199"></path></g></g></g><g id="g-root-tx__144w18khjqy9u-stroke" data-item-order="0" transform="translate(302, 242)"></g><g id="g-root-tx__qtfiv8hjqzur-stroke" data-item-order="0" transform="translate(302, 278)"></g><g id="g-root-ic_stre_13zux5gddbyfb-stroke" data-item-order="0" transform="translate(218, 368)"><g id="ic_stre_13zux5gddbyfb-stroke" fill="none" stroke-linecap="round" stroke-linejoin="round" stroke-miterlimit="4" stroke="#92bd39" stroke-width="2"><g><path d="M 28.799999 32.057999L 22 34L 22 41.279999L 30.73 38.799999C 36.210205 37.215855 39.987011 32.204559 40 26.5C 39.998539 19.597473 34.402527 14.002643 27.5 14.002643C 20.597473 14.002643 15.001459 19.597473 15 26.5L 15 55L 22 55L 22 26.5C 22 23.462435 24.462435 21 27.5 21C 30.537567 21 33 23.462435 33 26.5C 32.992458 29.080753 31.280626 31.346077 28.800001 32.057999ZM 48 13.5C 48 14.880713 49.119289 16 50.5 16C 51.880711 16 53 14.880713 53 13.5C 53 12.119288 51.880711 11 50.5 11C 49.119289 11 48 12.119288 48 13.5M 48.124001 23.75C 48.124001 25.062229 49.187771 26.125999 50.5 26.125999C 51.812229 26.125999 52.875999 25.062229 52.875999 23.75C 52.875999 22.437771 51.812229 21.374001 50.5 21.374001C 49.187771 21.374001 48.124001 22.437771 48.124001 23.75M 48 34C 48 35.380714 49.119289 36.5 50.5 36.5C 51.880711 36.5 53 35.380714 53 34C 53 32.619289 51.880711 31.5 50.5 31.5C 49.119289 31.5 48 32.619289 48 34M 48 44.25C 48 45.630711 49.119289 46.75 50.5 46.75C 51.880711 46.75 53 45.630711 53 44.25C 53 42.869289 51.880711 41.75 50.5 41.75C 49.119289 41.75 48 42.869289 48 44.25M 48 54.5C 48 55.880714 49.119289 57 50.5 57C 51.880711 57 53 55.880714 53 54.5C 53 53.119289 51.880711 52 50.5 52C 49.119289 52 48 53.119289 48 54.5"></path></g></g></g><g id="g-root-tx__uwycddbxu5-stroke" data-item-order="0" transform="translate(302, 362)"></g><g id="g-root-tx__1lqigk4ddbz7y-stroke" data-item-order="0" transform="translate(302, 398)"></g></g></g><path id="wqvw6zogfr7k5" d="M65.283 12.757a.35.35 0 0 0 .584.157l5.203-5.141-6.183 3.523.396 1.461zm-2.216-11.7a.35.35 0 0 0-.522.305v3.111l3.276-1.868-2.754-1.548zm3.728 2.105l-4.25 2.421v2.445l6.391-3.644-2.141-1.222zm4.708 3.303a.35.35 0 0 0 0-.609l-1.592-.9-7.365 4.199v1.782a.35.35 0 0 0 .523.305l8.435-4.777z M44.542 2.513c0-.433.355-.783.792-.783s.792.35.792.783-.355.783-.792.783-.792-.35-.792-.783zm59.171 0c0-.433.355-.783.792-.783s.792.35.792.783-.355.783-.792.783-.792-.35-.792-.783zm-85.951 7.636h-1.27v-.487c-.276.201-.864.609-1.881.609-1.202 0-2.274-.794-2.137-2.078.118-1.106 1.153-1.584 1.848-1.727l2.17-.345c0-.539-.29-.956-1.064-1.006s-1.21.305-1.571 1.017l-1.124-.605c1.218-2.631 5.029-1.764 5.029.414v4.207zm-1.27-2.86c.006.396-.062 1.112-.819 1.59-.587.37-1.841.299-1.903-.395-.049-.555.461-.791.906-.898l1.816-.297zm72.662 2.86h-1.27v-.487c-.276.201-.864.609-1.881.609-1.202 0-2.274-.794-2.137-2.078.118-1.106 1.153-1.584 1.848-1.727l2.17-.345c0-.539-.29-.956-1.064-1.006s-1.21.305-1.571 1.017l-1.124-.605c1.218-2.631 5.029-1.764 5.029.414v4.207zm-1.27-2.86c.006.396-.062 1.112-.82 1.59-.587.37-1.841.299-1.903-.395-.049-.555.461-.791.906-.898l1.816-.297zM99.096 10.149H97.85v-8.45h1.246v4.895l2.68-2.559h1.738l-2.633 2.535 2.715 3.578h-1.556l-2.077-2.707-.867.844v1.863zm6.053-6.114h-1.255v6.113h1.255V4.035zm-59.2 0h-1.255v6.113h1.255V4.035zm5.584 6.113V1.697h1.255v2.695c.361-.346 1-.485 1.47-.485 1.452 0 2.477 1.082 2.457 2.448v3.792h-1.27v-3.68c0-.408-.214-1.339-1.315-1.339-.968 0-1.342.756-1.342 1.339v3.681h-1.255zm-4.76-4.894V4.039h.621a.45.45 0 0 0 .45-.45v-.855h1.251v1.305h1.309v1.215h-1.309v3.109c0 .293.105.664.648.664.365 0 .531-.035.736-.07v1.137s-.361.113-.857.113c-1.398 0-1.777-1.051-1.777-1.788V5.254h-1.071zM36.528 4.039h-1.394l2.191 6.106h1.125l1.234-3.918 1.238 3.918h1.129l2.188-6.106h-1.383l-1.359 3.93-1.256-3.93h-1.124l-1.242 3.957-1.348-3.957zM26.212 7.141c-.02 1.566 1.187 3.129 3.223 3.129 1.566 0 2.383-.918 2.734-1.719L31.172 8c-.315.399-.801 1.094-1.738 1.094-1.145 0-1.825-.781-1.891-1.52h4.625c.074-.284.148-.995-.03-1.559-.336-1.064-1.221-2.102-2.839-2.102s-3.088 1.152-3.088 3.227zm1.363-.75h3.348c-.055-.43-.566-1.301-1.623-1.301a1.79 1.79 0 0 0-1.725 1.301zm-8.758.75c.038 1.758 1.277 3.133 3.145 3.133 1.074 0 1.723-.477 1.961-.672v.547h1.242V1.703h-1.258v2.888c-.414-.36-1.062-.68-1.93-.68-1.91 0-3.198 1.473-3.16 3.23zm1.309-.08c0 1.119.723 1.978 1.836 1.978a1.88 1.88 0 0 0 1.94-1.904c0-1.371-1.011-1.99-1.972-1.99s-1.805.798-1.805 1.916zm76.683-.028C96.771 5.275 95.532 3.9 93.664 3.9c-1.074 0-1.723.477-1.961.672v-.547h-1.242v8.22h1.258V9.583c.414.36 1.063.68 1.93.68 1.91 0 3.198-1.473 3.16-3.23zm-1.309.08c0-1.119-.723-1.978-1.836-1.978a1.88 1.88 0 0 0-1.94 1.904c0 1.371 1.011 1.99 1.972 1.99S95.5 8.231 95.5 7.113zM106.441 10.173V4.036h1.254v.382c.361-.346 1-.485 1.47-.485 1.452 0 2.477 1.082 2.457 2.448v3.792h-1.27V6.492c0-.408-.214-1.339-1.315-1.339-.969 0-1.342.756-1.342 1.339v3.681h-1.254zm-30.383-.021V1.824h1.084l4.215 5.777V1.824h1.32v8.328h-1.094l-4.207-5.796v5.796h-1.319zM5.24 10.149H4V2.377h1.014l2.664 3.597 2.654-3.592h1.03v7.766h-1.256V4.762L7.678 8.068 5.24 4.742v5.407z" transform="translate(608, 542)" fill="#80808088" stroke="none"></path></svg>