<?xml version="1.0" encoding="utf-8" standalone="yes"?>
<!DOCTYPE svg PUBLIC "-//W3C//DTD SVG 1.1//EN" "http://www.w3.org/Graphics/SVG/1.1/DTD/svg11.dtd">
<svg width="663" height="562" viewBox="0 0 663 562" style="fill:none;stroke:none;fill-rule:evenodd;clip-rule:evenodd;stroke-linecap:round;stroke-linejoin:round;stroke-miterlimit:1.5;" version="1.1" xmlns="http://www.w3.org/2000/svg" xmlns:xlink="http://www.w3.org/1999/xlink"><style class="text-font-style fontImports" data-font-family="Roboto">@import url('https://fonts.googleapis.com/css2?family=Roboto:wght@400;700&amp;display=block');</style><g id="items" style="isolation: isolate"><g id="blend" style="mix-blend-mode: normal"><g id="g-root-sy_0a_cu_hu155gfbu803-fill" data-item-order="-91004" transform="translate(109, 434)"><g id="sy_0a_cu_hu155gfbu803-fill" stroke="none" fill="#f5f5f5"><g><path d="M 64 31.7778C 64 46.8122 51.9117 59 37 59C 22.0883 59 9.999999 46.8122 10 31.7778C 10.000001 22.8728 14.2409 14.9666 20.7974 10L 53.2026 10.000003C 59.7592 14.9666 64 22.8729 64 31.7778Z"></path></g></g></g><g id="g-root-sy_0b_cu_8ye4wkfbu8ss-fill" data-item-order="-91000" transform="translate(40, 110)"><g id="sy_0b_cu_8ye4wkfbu8ss-fill" stroke="none" fill="#f5f5f5"><g><path d="M 130 94C 130 77.4315 143.4315 64 160 64C 176.5685 64 190 77.4315 190 94C 190 103.8136 185.2879 112.5266 178.0029 118L 141.9971 118C 134.7121 112.5266 130 103.8136 130 94ZM 130 34C 130 47.2548 119.2548 58 106 58C 92.7452 58 82 47.2548 82 34C 82 20.7452 92.7452 10 106 10C 119.2548 10 130 20.7452 130 34ZM 82 88C 82 68.1177 65.8823 52 46 52C 26.1177 52 10 68.1177 10 88C 10 100.5218 16.3931 111.5505 26.0932 118L 65.9068 118C 75.6069 111.5505 82 100.5218 82 88Z"></path></g></g></g><g id="g-root-sy_3_cu_4j73v8fbu6f9-fill" data-item-order="-90996" transform="translate(84.33203125, 362)"><g id="sy_3_cu_4j73v8fbu6f9-fill" stroke="none" fill="#f4ffdc"><g><path d="M 82.6074 82C 85.9211 82 88.6074 79.3137 88.6074 76L 88.6074 55L 113.055 10L 10 10L 34.4478 55L 34.4478 76C 34.4478 79.3137 37.1341 82 40.4478 82L 82.6074 82Z"></path></g></g></g><g id="g-root-sy_2_cu_1uoo5lgfbu70u-fill" data-item-order="-90992" transform="translate(45.21484375, 290)"><g id="sy_2_cu_1uoo5lgfbu70u-fill" stroke="none" fill="#e3fff2"><g><path d="M 49.1165 82L 152.172 82L 191.288 10L 10 10L 49.1165 82Z"></path></g></g></g><g id="g-root-sy_1_cu_1uoo5lgfbu70v-fill" data-item-order="-90988" transform="translate(14, 218)"><g id="sy_1_cu_1uoo5lgfbu70v-fill" stroke="none" fill="#e8f9ff"><g><path d="M 254 16C 254 12.6863 251.314 10 248 10L 16 10C 12.6863 10 10 12.6863 10 16L 10 31.0055C 10 34.3192 12.6863 37.0055 16 37.0055L 16.7699 37.0055L 41.2148 82L 222.503 82L 246.948 37.0055L 248 37.0055C 251.314 37.0055 254 34.3192 254 31.0055L 254 16Z"></path></g></g></g><g id="g-root-tx_rag_1q8unh0fbu7t4-fill" data-item-order="0" transform="translate(166, 38)"><g id="tx_rag_1q8unh0fbu7t4-fill" stroke="none" fill="#484848"><g><text style="font: bold 20px Roboto, sans-serif; white-space: pre;" font-weight="bold" font-size="20px" font-family="Roboto, sans-serif"><tspan x="12.14" y="34" dominant-baseline="ideographic">RAGプロセスによる洗練された応答</tspan></text></g></g></g><g id="g-root-ic_2_1umsthwfb9537-fill" data-item-order="0" transform="translate(124, 122)"></g><g id="g-root-ic_2_4kg578fb94w4-fill" data-item-order="0" transform="translate(58, 170)"></g><g id="g-root-ic_2_1lt15ckfbu8ld-fill" data-item-order="0" transform="translate(175, 179)"></g><g id="g-root-ic_info_v7zn10fbakg5-fill" data-item-order="0" transform="translate(292, 182)"></g><g id="g-root-tx__1ly1178fb94au-fill" data-item-order="0" transform="translate(352, 194)"><g id="tx__1ly1178fb94au-fill" stroke="none" fill="#1eabda"><g><text style="font: bold 20px Roboto, sans-serif; white-space: pre;" font-weight="bold" font-size="20px" font-family="Roboto, sans-serif"><tspan x="12" y="34" dominant-baseline="ideographic">情報取得</tspan></text></g></g></g><g id="g-root-tx__7r0icfb962t-fill" data-item-order="0" transform="translate(352.23828125, 229.8201904296875)"><g id="tx__7r0icfb962t-fill" stroke="none" fill="#484848"><g><text style="font: 15px Roboto, sans-serif; white-space: pre;" font-size="15px" font-family="Roboto, sans-serif"><tspan x="12" y="30.6" dominant-baseline="ideographic">外部ソースから関連データを検索</tspan></text></g></g></g><g id="g-root-ic_1_qp1rh0fbak24-fill" data-item-order="0" transform="translate(292, 302)"></g><g id="g-root-tx__18mkitwfb95vs-fill" data-item-order="0" transform="translate(352, 314)"><g id="tx__18mkitwfb95vs-fill" stroke="none" fill="#3cc583"><g><text style="font: bold 20px Roboto, sans-serif; white-space: pre;" font-weight="bold" font-size="20px" font-family="Roboto, sans-serif"><tspan x="12" y="34" dominant-baseline="ideographic">情報拡張</tspan></text></g></g></g><g id="g-root-tx_ai_1d2e0ycfb953j-fill" data-item-order="0" transform="translate(352.23828125, 349.818359375)"><g id="tx_ai_1d2e0ycfb953j-fill" stroke="none" fill="#484848"><g><text style="font: 15px Roboto, sans-serif; white-space: pre;" font-size="15px" font-family="Roboto, sans-serif"><tspan x="12" y="30.6" dominant-baseline="ideographic">データを生成AI用に整形</tspan></text></g></g></g><g id="g-root-ic_on_qvwzf8fb9537-fill" data-item-order="0" transform="translate(292, 422)"></g><g id="g-root-ic_corr_145hzdgfbu876-fill" data-item-order="0" transform="translate(123, 442)"></g><g id="g-root-tx__vbqhjofb94ay-fill" data-item-order="0" transform="translate(352, 434)"><g id="tx__vbqhjofb94ay-fill" stroke="none" fill="#92bd39"><g><text style="font: bold 20px Roboto, sans-serif; white-space: pre;" font-weight="bold" font-size="20px" font-family="Roboto, sans-serif"><tspan x="12" y="34" dominant-baseline="ideographic">応答生成</tspan></text></g></g></g><g id="g-root-tx__147dhskfb93i9-fill" data-item-order="0" transform="translate(352.23828125, 469.818359375)"><g id="tx__147dhskfb93i9-fill" stroke="none" fill="#484848"><g><text style="font: 15px Roboto, sans-serif; white-space: pre;" font-size="15px" font-family="Roboto, sans-serif"><tspan x="12" y="30.6" dominant-baseline="ideographic">拡張データに基づいてコンテンツを作成</tspan></text></g></g></g><g id="g-root-sy_0a_cu_hu155gfbu803-stroke" data-item-order="-91004" transform="translate(109, 434)"><g id="sy_0a_cu_hu155gfbu803-stroke" fill="none" stroke-linecap="round" stroke-linejoin="round" stroke-miterlimit="4" stroke="#969696" stroke-width="2"><g><path d="M 64 31.7778C 64 46.8122 51.9117 59 37 59C 22.0883 59 10 46.8122 10 31.7778C 10.000001 22.8728 14.2409 14.9666 20.7974 10L 53.2026 10C 59.7592 14.9666 64 22.8729 64 31.7778Z"></path></g></g></g><g id="g-root-sy_0b_cu_8ye4wkfbu8ss-stroke" data-item-order="-91000" transform="translate(40, 110)"><g id="sy_0b_cu_8ye4wkfbu8ss-stroke" fill="none" stroke-linecap="round" stroke-linejoin="round" stroke-miterlimit="4" stroke="#969696" stroke-width="2"><g><path d="M 130 94C 130 77.4315 143.4315 64 160 64C 176.5685 64 190 77.4315 190 94C 190 103.8136 185.2879 112.5266 178.0029 118L 141.9971 118C 134.7121 112.5266 130 103.8136 130 94ZM 130 34C 130 47.2548 119.2548 58 106 58C 92.7452 58 82 47.2548 82 34C 82 20.7452 92.7452 10 106 10C 119.2548 10 130 20.7452 130 34ZM 82 88C 82 68.1177 65.8823 52 46 52C 26.1177 52 10 68.1177 10 88C 10 100.5218 16.3931 111.5505 26.0932 118L 65.9068 118C 75.6069 111.5505 82 100.5218 82 88Z"></path></g></g></g><g id="g-root-sy_3_cu_4j73v8fbu6f9-stroke" data-item-order="-90996" transform="translate(84.33203125, 362)"><g id="sy_3_cu_4j73v8fbu6f9-stroke" fill="none" stroke-linecap="round" stroke-linejoin="round" stroke-miterlimit="4" stroke="#92bd39" stroke-width="2"><g><path d="M 82.6074 82C 85.9211 82 88.6074 79.3137 88.6074 76L 88.6074 55L 113.0552 10L 10 10L 34.4478 55L 34.4478 76C 34.4478 79.3137 37.1341 82 40.4478 82L 82.6074 82Z"></path></g></g></g><g id="g-root-sy_2_cu_1uoo5lgfbu70u-stroke" data-item-order="-90992" transform="translate(45.21484375, 290)"><g id="sy_2_cu_1uoo5lgfbu70u-stroke" fill="none" stroke-linecap="round" stroke-linejoin="round" stroke-miterlimit="4" stroke="#3cc583" stroke-width="2"><g><path d="M 49.1165 82L 152.1718 82L 191.2883 10L 10 10L 49.1165 82Z"></path></g></g></g><g id="g-root-sy_1_cu_1uoo5lgfbu70v-stroke" data-item-order="-90988" transform="translate(14, 218)"><g id="sy_1_cu_1uoo5lgfbu70v-stroke" fill="none" stroke-linecap="round" stroke-linejoin="round" stroke-miterlimit="4" stroke="#1eabda" stroke-width="2"><g><path d="M 254 16C 254 12.6863 251.3137 10 248 10L 16 10C 12.6863 10 10 12.6863 10 16L 10 31.0055C 10 34.3192 12.6863 37.0055 16 37.0055L 16.7699 37.0055L 41.2148 82L 222.5031 82L 246.948 37.0055L 248 37.0055C 251.3137 37.0055 254 34.3192 254 31.0055L 254 16Z"></path></g></g></g><g id="g-root-tx_rag_1q8unh0fbu7t4-stroke" data-item-order="0" transform="translate(166, 38)"></g><g id="g-root-ic_2_1umsthwfb9537-stroke" data-item-order="0" transform="translate(124, 122)"><g id="ic_2_1umsthwfb9537-stroke" fill="none" stroke-linecap="round" stroke-linejoin="round" stroke-miterlimit="4" stroke="#969696" stroke-width="2"><g><path d="M 20.8858 31.0469C 26.3478 31.0469 30.7756 26.6192 30.7756 21.1572C 30.7756 15.69524 26.3478 11.26746 20.8858 11.26746C 15.42388 11.26746 10.996094 15.69524 10.996094 21.1572C 10.996094 26.6192 15.42388 31.0469 20.8858 31.0469ZM 10 10M 28.0908 27.9268L 33.0036 32.7326M 17.05814 26.8682L 17.05814 23.3936C 16.29182 22.6837 15.75738 21.7592 15.52462 20.7408C 15.29185 19.72244 15.37159 18.65755 15.7534 17.6852C 16.13521 16.71284 16.80136 15.87822 17.66486 15.29032C 18.52836 14.70242 19.54906 14.38857 20.5937 14.38974C 24.553 14.38974 25.4076 17.64966 26.819 21.3111C 26.8432 21.3741 26.8517 21.4421 26.8438 21.5092C 26.8359 21.5762 26.8118 21.6403 26.7736 21.696C 26.7354 21.7516 26.6842 21.7972 26.6245 21.8287C 26.5648 21.8602 26.4983 21.8767 26.4308 21.8768L 25.3771 21.8768L 25.3771 23.5406C 25.3771 23.9819 25.2018 24.405 24.8898 24.7171C 24.5778 25.0291 24.1546 25.2044 23.7133 25.2044L 22.8814 25.2044L 22.8814 26.8682M 19.09131 18.89172C 19.09131 18.12289 19.70638 17.43097 20.5521 17.43097C 21.3209 17.43097 22.0129 18.04601 22.0129 18.89172C 22.0129 19.66056 21.3978 20.3525 20.5521 20.3525L 20.5521 21.0009M 20.5525 23.1307C 20.452 23.1307 20.3516 23.2312 20.3516 23.3317C 20.3516 23.4322 20.452 23.5326 20.5525 23.5326M 20.5524 23.1307C 20.6529 23.1307 20.7534 23.2312 20.7534 23.3317C 20.7534 23.4322 20.6529 23.5326 20.5524 23.5326"></path></g></g></g><g id="g-root-ic_2_4kg578fb94w4-stroke" data-item-order="0" transform="translate(58, 170)"><g id="ic_2_4kg578fb94w4-stroke" fill="none" stroke-linecap="round" stroke-linejoin="round" stroke-miterlimit="4" stroke="#969696" stroke-width="2"><g><path d="M 26.328701 41.570351C 34.521698 41.570351 41.163399 34.928799 41.163399 26.7358C 41.163399 18.54286 34.521698 11.90119 26.328701 11.90119C 18.13582 11.90119 11.494141 18.54286 11.494141 26.7358C 11.494141 34.928799 18.13582 41.570351 26.328701 41.570351ZM 10 10M 37.1362 36.890198L 44.505398 44.0989M 20.58721 35.302299L 20.58721 30.090401C 19.437731 29.025549 18.63607 27.6388 18.28693 26.1112C 17.937775 24.58366 18.057384 22.986324 18.6301 21.5278C 19.202816 20.06926 20.20204 18.817329 21.49729 17.93548C 22.792542 17.053631 24.323589 16.582855 25.890551 16.58461C 31.8295 16.58461 33.111401 21.474491 35.2285 26.96665C 35.264801 27.06115 35.27755 27.163149 35.265701 27.2638C 35.253849 27.3643 35.217701 27.460449 35.1604 27.544001C 35.1031 27.627399 35.026299 27.695801 34.936752 27.74305C 34.847198 27.7903 34.747452 27.81505 34.646198 27.815199L 33.065651 27.815199L 33.065651 30.3109C 33.065651 30.972851 32.8027 31.6075 32.334702 32.075649C 31.866699 32.543652 31.231899 32.806599 30.56995 32.806599L 29.3221 32.806599L 29.3221 35.302299M 23.636965 23.33758C 23.636965 22.184336 24.55957 21.146456 25.82815 21.146456C 26.98135 21.146456 28.01935 22.069016 28.01935 23.33758C 28.01935 24.490839 27.096701 25.528749 25.82815 25.528749L 25.82815 26.50135M 25.828751 29.696051C 25.677999 29.696051 25.527399 29.8468 25.527399 29.997551C 25.527399 30.1483 25.677999 30.298901 25.828751 30.298901M 25.8286 29.696051C 25.979349 29.696051 26.1301 29.8468 26.1301 29.997551C 26.1301 30.1483 25.979349 30.298901 25.8286 30.298901"></path></g></g></g><g id="g-root-ic_2_1lt15ckfbu8ld-stroke" data-item-order="0" transform="translate(175, 179)"><g id="ic_2_1lt15ckfbu8ld-stroke" fill="none" stroke-linecap="round" stroke-linejoin="round" stroke-miterlimit="4" stroke="#969696" stroke-width="2"><g><path d="M 23.60725 36.308624C 30.43475 36.308624 35.969501 30.774 35.969501 23.946499C 35.969501 17.119049 30.43475 11.584325 23.60725 11.584325C 16.77985 11.584325 11.245117 17.119049 11.245117 23.946499C 11.245117 30.774 16.77985 36.308624 23.60725 36.308624ZM 10 10M 32.613499 32.408501L 38.754498 38.415749M 18.822674 31.085251L 18.822674 26.742001C 17.864775 25.854624 17.196726 24.698999 16.905775 23.426001C 16.614813 22.153049 16.714487 20.821938 17.19175 19.606501C 17.669012 18.39105 18.501699 17.347775 19.581074 16.6129C 20.66045 15.878025 21.936325 15.485712 23.242126 15.487175C 28.19125 15.487175 29.259501 19.562075 31.02375 24.138874C 31.054001 24.217625 31.064625 24.302624 31.054749 24.386499C 31.044874 24.470249 31.01475 24.550375 30.966999 24.620001C 30.919249 24.689501 30.855251 24.7465 30.780624 24.785875C 30.706001 24.825251 30.622875 24.845875 30.5385 24.845999L 29.221375 24.845999L 29.221375 26.925751C 29.221375 27.477375 29.002251 28.00625 28.612249 28.396376C 28.22225 28.786375 27.693251 29.005501 27.141624 29.005501L 26.101749 29.005501L 26.101749 31.085251M 21.364138 21.114651C 21.364138 20.153614 22.132975 19.288713 23.190125 19.288713C 24.151125 19.288713 25.016125 20.057512 25.016125 21.114651C 25.016125 22.075699 24.24725 22.940624 23.190125 22.940624L 23.190125 23.751125M 23.190624 26.413376C 23.064999 26.413376 22.939499 26.539 22.939499 26.664625C 22.939499 26.790251 23.064999 26.915751 23.190624 26.915751M 23.1905 26.413376C 23.316124 26.413376 23.44175 26.539 23.44175 26.664625C 23.44175 26.790251 23.316124 26.915751 23.1905 26.915751"></path></g></g></g><g id="g-root-ic_info_v7zn10fbakg5-stroke" data-item-order="0" transform="translate(292, 182)"><g id="ic_info_v7zn10fbakg5-stroke" fill="none" stroke-linecap="round" stroke-linejoin="round" stroke-miterlimit="4" stroke="#1eabda" stroke-width="2"><g><path d="M 33 45C 33 51.627419 38.372581 57 45 57C 51.627419 57 57 51.627419 57 45C 57 38.372581 51.627419 33 45 33C 38.372581 33 33 38.372581 33 45ZM 45 51L 45 44C 45 43.447716 44.552284 43 44 43L 42 43M 43.5 38C 43.223858 38 43 38.223858 43 38.5C 43 38.776142 43.223858 39 43.5 39C 43.776142 39 44 38.776142 44 38.5C 44 38.223858 43.776142 38 43.5 38L 43.5 38M 42 51L 48 51M 21 51L 27 51M 27.002001 41L 27.002001 51M 16.5 50C 16.223858 50 16 50.223858 16 50.5C 16 50.776142 16.223858 51 16.5 51C 16.776142 51 17 50.776142 17 50.5C 17 50.223858 16.776142 50 16.5 50L 16.5 50M 11.5 50C 11.223858 50 11 50.223858 11 50.5C 11 50.776142 11.223858 51 11.5 51C 11.776142 51 12 50.776142 12 50.5C 12 50.223858 11.776142 50 11.5 50L 11.5 50M 18.5 35.5C 18.223858 35.5 18 35.723858 18 36C 18 36.276142 18.223858 36.5 18.5 36.5C 18.776142 36.5 19 36.276142 19 36C 19 35.723858 18.776142 35.5 18.5 35.5L 18.5 35.5M 23.5 35.5C 23.223858 35.5 23 35.723858 23 36C 23 36.276142 23.223858 36.5 23.5 36.5C 23.776142 36.5 24 36.276142 24 36C 24 35.723858 23.776142 35.5 23.5 35.5L 23.5 35.5M 35 31L 16 31C 13.238577 31 11 33.238579 11 36C 11 38.761425 13.238577 41 16 41L 29 41M 18.5 25.5C 18.223858 25.5 18 25.723858 18 26C 18 26.276142 18.223858 26.5 18.5 26.5C 18.776142 26.5 19 26.276142 19 26C 19 25.723858 18.776142 25.5 18.5 25.5L 18.5 25.5M 23.5 25.5C 23.223858 25.5 23 25.723858 23 26C 23 26.276142 23.223858 26.5 23.5 26.5C 23.776142 26.5 24 26.276142 24 26C 24 25.723858 23.776142 25.5 23.5 25.5L 23.5 25.5M 45 26C 45 23.238577 42.761425 21 40 21L 16 21C 13.238577 21 11 23.238577 11 26C 11 28.761423 13.238577 31 16 31L 35 31M 18.5 15.5C 18.223858 15.5 18 15.723858 18 16C 18 16.276142 18.223858 16.5 18.5 16.5C 18.776142 16.5 19 16.276142 19 16C 19 15.723858 18.776142 15.5 18.5 15.5L 18.5 15.5M 23.5 15.5C 23.223858 15.5 23 15.723858 23 16C 23 16.276142 23.223858 16.5 23.5 16.5C 23.776142 16.5 24 16.276142 24 16C 24 15.723858 23.776142 15.5 23.5 15.5L 23.5 15.5M 45 16C 45 13.238576 42.761425 11 40 11L 16 11C 13.238577 11 11 13.238577 11 16C 11 18.761425 13.238577 21 16 21L 40 21C 42.761425 21 45 18.761425 45 16Z"></path></g></g></g><g id="g-root-tx__1ly1178fb94au-stroke" data-item-order="0" transform="translate(352, 194)"></g><g id="g-root-tx__7r0icfb962t-stroke" data-item-order="0" transform="translate(352.23828125, 229.8201904296875)"></g><g id="g-root-ic_1_qp1rh0fbak24-stroke" data-item-order="0" transform="translate(292, 302)"><g id="ic_1_qp1rh0fbak24-stroke" fill="none" stroke-linecap="round" stroke-linejoin="round" stroke-miterlimit="4" stroke="#3cc583" stroke-width="2"><g><path d="M 24.022858 14.08C 25.258335 15.286715 25.992985 16.915182 26.08 18.639999L 32.354286 12.4C 32.790134 11.91136 33.413795 11.631939 34.068573 11.631939C 34.723347 11.631939 35.347008 11.91136 35.782856 12.4L 40.857143 17.68C 40.13644 18.029476 39.476597 18.492525 38.902859 19.05143C 36.366226 21.841013 36.468044 26.131165 39.134155 28.797272C 41.800262 31.463381 46.090416 31.565199 48.879997 29.02857C 49.438904 28.454834 49.901951 27.794989 50.251427 27.074286L 55.600002 32.354286C 56.088642 32.790134 56.368061 33.413795 56.368061 34.068573C 56.368061 34.723347 56.088642 35.347008 55.600002 35.782856L 49.360001 41.920002C 53.124832 42.147659 56.03883 45.306301 55.962902 49.077248C 55.886978 52.84819 52.84819 55.886978 49.077248 55.962902C 45.306301 56.03883 42.147659 53.124832 41.920002 49.360001L 35.645714 55.600002C 35.209866 56.088642 34.586205 56.368061 33.931427 56.368061C 33.276653 56.368061 32.652992 56.088642 32.217144 55.600002L 27.142857 50.32C 27.86356 49.970524 28.523405 49.507477 29.097143 48.948574C 31.852257 46.174526 31.836906 41.692257 29.062859 38.937145C 26.288811 36.182034 21.806541 36.197384 19.05143 38.971432C 18.492525 39.545166 18.029476 40.205009 17.68 40.925716L 12.4 35.645714C 11.91136 35.209866 11.631939 34.586205 11.631939 33.931427C 11.631939 33.276653 11.91136 32.652992 12.4 32.217144L 18.639999 26.08C 16.915182 25.992985 15.286715 25.258335 14.08 24.022858C 11.335168 21.277073 11.335553 16.826168 14.080861 14.080861C 16.826168 11.335553 21.277073 11.335168 24.022856 14.08Z"></path></g></g></g><g id="g-root-tx__18mkitwfb95vs-stroke" data-item-order="0" transform="translate(352, 314)"></g><g id="g-root-tx_ai_1d2e0ycfb953j-stroke" data-item-order="0" transform="translate(352.23828125, 349.818359375)"></g><g id="g-root-ic_on_qvwzf8fb9537-stroke" data-item-order="0" transform="translate(292, 422)"><g id="ic_on_qvwzf8fb9537-stroke" fill="none" stroke-linecap="round" stroke-linejoin="round" stroke-miterlimit="4" stroke="#92bd39" stroke-width="2"><g><path d="M 46 37.428574C 46.022171 31.506199 41.720341 26.453302 35.870296 25.530289C 30.020248 24.607275 24.371649 28.090206 22.569283 33.731705C 20.766918 39.373199 23.34985 45.48597 28.651428 48.125717L 28.651428 54.022858C 28.670025 54.747917 29.263273 55.325954 29.988571 55.325714L 38.011429 55.325714C 38.736725 55.325954 39.329975 54.747917 39.348572 54.022858L 39.348572 48.022858C 43.376583 46.017712 45.944405 41.927727 46 37.428574ZM 34 12.777143L 34 17.92M 47.714287 17.68L 44.079998 21.348572M 55.531429 28.308573L 50.388573 28.308573M 20.285715 17.68L 23.92 21.348572M 12.468572 28.308573L 17.611429 28.308573"></path></g></g></g><g id="g-root-ic_corr_145hzdgfbu876-stroke" data-item-order="0" transform="translate(123, 442)"><g id="ic_corr_145hzdgfbu876-stroke" fill="none" stroke-linecap="round" stroke-linejoin="round" stroke-miterlimit="4" stroke="#969696" stroke-width="2"><g><path d="M 35.071426 25.428572L 27.42 36.035713L 22.312857 32.062859M 27.642857 24.464287L 12.785714 24.464287C 11.760042 24.464287 10.928572 23.600836 10.928572 22.535715L 10.928572 12.892858C 10.928572 11.827737 11.760042 10.964286 12.785714 10.964286L 29.5 10.964286C 30.525671 10.964286 31.357141 11.827737 31.357141 12.892858L 31.357141 20.607143M 16.5 17.714287C 16.5 18.246847 16.915735 18.678572 17.428572 18.678572C 17.941408 18.678572 18.357143 18.246847 18.357143 17.714287C 18.357143 17.181726 17.941408 16.75 17.428572 16.75C 16.915735 16.75 16.5 17.181726 16.5 17.714287M 23.928572 17.714287C 23.928572 18.246847 24.344307 18.678572 24.857143 18.678572C 25.369978 18.678572 25.785713 18.246847 25.785713 17.714287C 25.785713 17.181726 25.369978 16.75 24.857143 16.75C 24.344307 16.75 23.928572 17.181726 23.928572 17.714287"></path></g></g></g><g id="g-root-tx__vbqhjofb94ay-stroke" data-item-order="0" transform="translate(352, 434)"></g><g id="g-root-tx__147dhskfb93i9-stroke" data-item-order="0" transform="translate(352.23828125, 469.818359375)"></g></g></g><path id="wvccsckg5c3rd" d="M65.283 12.757a.35.35 0 0 0 .584.157l5.203-5.141-6.183 3.523.396 1.461zm-2.216-11.7a.35.35 0 0 0-.522.305v3.111l3.276-1.868-2.754-1.548zm3.728 2.105l-4.25 2.421v2.445l6.391-3.644-2.141-1.222zm4.708 3.303a.35.35 0 0 0 0-.609l-1.592-.9-7.365 4.199v1.782a.35.35 0 0 0 .523.305l8.435-4.777z M44.542 2.513c0-.433.355-.783.792-.783s.792.35.792.783-.355.783-.792.783-.792-.35-.792-.783zm59.171 0c0-.433.355-.783.792-.783s.792.35.792.783-.355.783-.792.783-.792-.35-.792-.783zm-85.951 7.636h-1.27v-.487c-.276.201-.864.609-1.881.609-1.202 0-2.274-.794-2.137-2.078.118-1.106 1.153-1.584 1.848-1.727l2.17-.345c0-.539-.29-.956-1.064-1.006s-1.21.305-1.571 1.017l-1.124-.605c1.218-2.631 5.029-1.764 5.029.414v4.207zm-1.27-2.86c.006.396-.062 1.112-.819 1.59-.587.37-1.841.299-1.903-.395-.049-.555.461-.791.906-.898l1.816-.297zm72.662 2.86h-1.27v-.487c-.276.201-.864.609-1.881.609-1.202 0-2.274-.794-2.137-2.078.118-1.106 1.153-1.584 1.848-1.727l2.17-.345c0-.539-.29-.956-1.064-1.006s-1.21.305-1.571 1.017l-1.124-.605c1.218-2.631 5.029-1.764 5.029.414v4.207zm-1.27-2.86c.006.396-.062 1.112-.82 1.59-.587.37-1.841.299-1.903-.395-.049-.555.461-.791.906-.898l1.816-.297zM99.096 10.149H97.85v-8.45h1.246v4.895l2.68-2.559h1.738l-2.633 2.535 2.715 3.578h-1.556l-2.077-2.707-.867.844v1.863zm6.053-6.114h-1.255v6.113h1.255V4.035zm-59.2 0h-1.255v6.113h1.255V4.035zm5.584 6.113V1.697h1.255v2.695c.361-.346 1-.485 1.47-.485 1.452 0 2.477 1.082 2.457 2.448v3.792h-1.27v-3.68c0-.408-.214-1.339-1.315-1.339-.968 0-1.342.756-1.342 1.339v3.681h-1.255zm-4.76-4.894V4.039h.621a.45.45 0 0 0 .45-.45v-.855h1.251v1.305h1.309v1.215h-1.309v3.109c0 .293.105.664.648.664.365 0 .531-.035.736-.07v1.137s-.361.113-.857.113c-1.398 0-1.777-1.051-1.777-1.788V5.254h-1.071zM36.528 4.039h-1.394l2.191 6.106h1.125l1.234-3.918 1.238 3.918h1.129l2.188-6.106h-1.383l-1.359 3.93-1.256-3.93h-1.124l-1.242 3.957-1.348-3.957zM26.212 7.141c-.02 1.566 1.187 3.129 3.223 3.129 1.566 0 2.383-.918 2.734-1.719L31.172 8c-.315.399-.801 1.094-1.738 1.094-1.145 0-1.825-.781-1.891-1.52h4.625c.074-.284.148-.995-.03-1.559-.336-1.064-1.221-2.102-2.839-2.102s-3.088 1.152-3.088 3.227zm1.363-.75h3.348c-.055-.43-.566-1.301-1.623-1.301a1.79 1.79 0 0 0-1.725 1.301zm-8.758.75c.038 1.758 1.277 3.133 3.145 3.133 1.074 0 1.723-.477 1.961-.672v.547h1.242V1.703h-1.258v2.888c-.414-.36-1.062-.68-1.93-.68-1.91 0-3.198 1.473-3.16 3.23zm1.309-.08c0 1.119.723 1.978 1.836 1.978a1.88 1.88 0 0 0 1.94-1.904c0-1.371-1.011-1.99-1.972-1.99s-1.805.798-1.805 1.916zm76.683-.028C96.771 5.275 95.532 3.9 93.664 3.9c-1.074 0-1.723.477-1.961.672v-.547h-1.242v8.22h1.258V9.583c.414.36 1.063.68 1.93.68 1.91 0 3.198-1.473 3.16-3.23zm-1.309.08c0-1.119-.723-1.978-1.836-1.978a1.88 1.88 0 0 0-1.94 1.904c0 1.371 1.011 1.99 1.972 1.99S95.5 8.231 95.5 7.113zM106.441 10.173V4.036h1.254v.382c.361-.346 1-.485 1.47-.485 1.452 0 2.477 1.082 2.457 2.448v3.792h-1.27V6.492c0-.408-.214-1.339-1.315-1.339-.969 0-1.342.756-1.342 1.339v3.681h-1.254zm-30.383-.021V1.824h1.084l4.215 5.777V1.824h1.32v8.328h-1.094l-4.207-5.796v5.796h-1.319zM5.24 10.149H4V2.377h1.014l2.664 3.597 2.654-3.592h1.03v7.766h-1.256V4.762L7.678 8.068 5.24 4.742v5.407z" transform="translate(20, 527.818359375)" fill="#80808088" stroke="none"></path></svg>