<?xml version="1.0" encoding="utf-8" standalone="yes"?>
<!DOCTYPE svg PUBLIC "-//W3C//DTD SVG 1.1//EN" "http://www.w3.org/Graphics/SVG/1.1/DTD/svg11.dtd">
<svg width="840" height="394" viewBox="0 0 840 394" style="fill:none;stroke:none;fill-rule:evenodd;clip-rule:evenodd;stroke-linecap:round;stroke-linejoin:round;stroke-miterlimit:1.5;" version="1.1" xmlns="http://www.w3.org/2000/svg" xmlns:xlink="http://www.w3.org/1999/xlink"><style class="text-font-style fontImports" data-font-family="Roboto">@import url('https://fonts.googleapis.com/css2?family=Roboto:wght@400;700&amp;display=block');</style><g id="items" style="isolation: isolate"><g id="blend" style="mix-blend-mode: normal"><g id="g-root-sy_-1_cu_qsrqf9g5rle4-fill" data-item-order="-109434" transform="translate(265, 116)"><g id="sy_-1_cu_qsrqf9g5rle4-fill" stroke="none" fill="#f5f5f5"><g><path d="M 125 34L 101 10L 10 166L 34 190L 125 34ZM 125 34L 34 190L 216 190L 125 34Z"></path></g></g></g><g id="g-root-sy_0_line-start_mcy8atg5rm6d-fill" data-item-order="-109429" transform="translate(242, 218)"></g><g id="g-root-cr_0_cr-small_mcy8atg5rm6e-fill" data-item-order="-109428" transform="translate(170, 182)"><g id="cr_0_cr-small_mcy8atg5rm6e-fill" stroke="none" fill="#f5f5f5"><g><path d="M 10 46C 10 65.882251 26.117749 82 46 82C 65.882251 82 82 65.882251 82 46C 82 26.117749 65.882251 10 46 10C 26.117749 10 10 26.117749 10 46"></path></g></g></g><g id="g-root-sy_3_line_dhxp51g5rjtb-fill" data-item-order="-109421" transform="translate(335, 218)"></g><g id="g-root-cr_3_cr-small_hxr79hg5rjsw-fill" data-item-order="-109420" transform="translate(590, 272)"><g id="cr_3_cr-small_hxr79hg5rjsw-fill" stroke="none" fill="#f4ffdc"><g><path d="M 10 40C 10.000002 56.568544 23.431459 70.000002 40.000002 70.000002C 56.568544 70.000002 70.000002 56.568544 70.000002 40.000002C 70.000002 23.431459 56.568544 10.000002 40.000002 10.000002C 23.431459 10.000002 10.000002 23.431459 10.000002 40.000002"></path></g></g></g><g id="g-root-sy_2_line_92470lg5rkll-fill" data-item-order="-109413" transform="translate(334.5, 218)"></g><g id="g-root-cr_2_cr-small_92470lg5rklm-fill" data-item-order="-109412" transform="translate(590, 188)"><g id="cr_2_cr-small_92470lg5rklm-fill" stroke="none" fill="#e3fff2"><g><path d="M 10 40C 10.000002 56.568544 23.431459 70.000002 40.000002 70.000002C 56.568544 70.000002 70.000002 56.568544 70.000002 40.000002C 70.000002 23.431459 56.568544 10.000002 40.000002 10.000002C 23.431459 10.000002 10.000002 23.431459 10.000002 40.000002"></path></g></g></g><g id="g-root-sy_1_line_4maow5g5rldv-fill" data-item-order="-109405" transform="translate(334.5, 134)"></g><g id="g-root-cr_1_cr-small_4maow5g5rldw-fill" data-item-order="-109404" transform="translate(590, 104.0001220703125)"><g id="cr_1_cr-small_4maow5g5rldw-fill" stroke="none" fill="#e8f9ff"><g><path d="M 10 40C 10.000002 56.568544 23.431459 70.000002 40.000002 70.000002C 56.568544 70.000002 70.000002 56.568544 70.000002 40.000002C 70.000002 23.431459 56.568544 10.000002 40.000002 10.000002C 23.431459 10.000002 10.000002 23.431459 10.000002 40.000002"></path></g></g></g><g id="g-root-tx__1ha2kjpg57wg5-fill" data-item-order="0" transform="translate(278, 38)"><g id="tx__1ha2kjpg57wg5-fill" stroke="none" fill="#484848"><g><text style="font: 20px Roboto, sans-serif; white-space: pre;" font-size="20px" font-family="Roboto, sans-serif"><tspan x="12" y="34" dominant-baseline="ideographic">ベクトルデータベースの活用</tspan></text></g></g></g><g id="g-root-ic_sear_4maow5g5syrs-fill" data-item-order="0" transform="translate(602, 116)"></g><g id="g-root-tx__1lpw2o5g57vnw-fill" data-item-order="0" transform="translate(662, 122)"><g id="tx__1lpw2o5g57vnw-fill" stroke="none" fill="#484848"><g><text style="font: 20px Roboto, sans-serif; white-space: pre;" font-size="20px" font-family="Roboto, sans-serif"><tspan x="12" y="34" dominant-baseline="ideographic">類似度比較</tspan></text></g></g></g><g id="g-root-tx__958kg5g5sz5t-fill" data-item-order="0" transform="translate(14, 194)"><g id="tx__958kg5g5sz5t-fill" stroke="none" fill="#484848"><g><text style="font: 20px Roboto, sans-serif; white-space: pre;" font-size="20px" font-family="Roboto, sans-serif"><tspan x="12" y="34" dominant-baseline="ideographic">ベクトルデータ</tspan><tspan x="52" y="58" dominant-baseline="ideographic">ベース機能</tspan></text></g></g></g><g id="g-root-ic_serv_1urrqmdg5rlzh-fill" data-item-order="0" transform="translate(182, 194)"></g><g id="g-root-ic_conn_3ctc5g5sydr-fill" data-item-order="0" transform="translate(602, 200)"></g><g id="g-root-tx__1uuw41xg5t0jn-fill" data-item-order="0" transform="translate(662, 206)"><g id="tx__1uuw41xg5t0jn-fill" stroke="none" fill="#484848"><g><text style="font: 20px Roboto, sans-serif; white-space: pre;" font-size="20px" font-family="Roboto, sans-serif"><tspan x="12" y="34" dominant-baseline="ideographic">情報管理</tspan></text></g></g></g><g id="g-root-ic_cont_8fwlg5sxza-fill" data-item-order="0" transform="translate(602, 284)"></g><g id="g-root-tx__9lk79g5szyi-fill" data-item-order="0" transform="translate(662, 278)"><g id="tx__9lk79g5szyi-fill" stroke="none" fill="#484848"><g><text style="font: 20px Roboto, sans-serif; white-space: pre;" font-size="20px" font-family="Roboto, sans-serif"><tspan x="12" y="34" dominant-baseline="ideographic">リアルタイム処</tspan><tspan x="12" y="58" dominant-baseline="ideographic">理</tspan></text></g></g></g><g id="g-root-sy_-1_cu_qsrqf9g5rle4-stroke" data-item-order="-109434" transform="translate(265, 116)"><g id="sy_-1_cu_qsrqf9g5rle4-stroke" fill="none" stroke-linecap="round" stroke-linejoin="round" stroke-miterlimit="4" stroke="#969696" stroke-width="2"><g><path d="M 125 34L 101 10L 10 166L 34 190L 125 34ZM 125 34L 34 190L 216 190L 125 34Z"></path></g></g></g><g id="g-root-sy_0_line-start_mcy8atg5rm6d-stroke" data-item-order="-109429" transform="translate(242, 218)"><g id="sy_0_line-start_mcy8atg5rm6d-stroke" fill="none" stroke-linecap="round" stroke-linejoin="round" stroke-miterlimit="4" stroke="#969696" stroke-width="2"><g><path d="M 10 10L 102.5 10"></path></g></g></g><g id="g-root-cr_0_cr-small_mcy8atg5rm6e-stroke" data-item-order="-109428" transform="translate(170, 182)"><g id="cr_0_cr-small_mcy8atg5rm6e-stroke" fill="none" stroke-linecap="round" stroke-linejoin="round" stroke-miterlimit="4" stroke="#969696" stroke-width="2"><g><path d="M 10 46C 10 65.882251 26.117749 82 46 82C 65.882251 82 82 65.882251 82 46C 82 26.117749 65.882251 10 46 10C 26.117749 10 10 26.117749 10 46"></path></g></g></g><g id="g-root-sy_3_line_dhxp51g5rjtb-stroke" data-item-order="-109421" transform="translate(335, 218)"><g id="sy_3_line_dhxp51g5rjtb-stroke" fill="none" stroke-linecap="round" stroke-linejoin="round" stroke-miterlimit="4" stroke="#92bd39" stroke-width="2"><g><path d="M 257.19 93.14L 107.5 22L 10 10"></path><path d="M 249 96.4L 257.6 93.4L 254.6 84.7" stroke-dasharray="none"></path></g></g></g><g id="g-root-cr_3_cr-small_hxr79hg5rjsw-stroke" data-item-order="-109420" transform="translate(590, 272)"><g id="cr_3_cr-small_hxr79hg5rjsw-stroke" fill="none" stroke-linecap="round" stroke-linejoin="round" stroke-miterlimit="4" stroke="#92bd39" stroke-width="2"><g><path d="M 10 40C 10.000002 56.568544 23.431459 70.000002 40.000002 70.000002C 56.568544 70.000002 70.000002 56.568544 70.000002 40.000002C 70.000002 23.431459 56.568544 10.000002 40.000002 10.000002C 23.431459 10.000002 10.000002 23.431459 10.000002 40.000002"></path></g></g></g><g id="g-root-sy_2_line_92470lg5rkll-stroke" data-item-order="-109413" transform="translate(334.5, 218)"><g id="sy_2_line_92470lg5rkll-stroke" fill="none" stroke-linecap="round" stroke-linejoin="round" stroke-miterlimit="4" stroke="#3cc583" stroke-width="2"><g><path d="M 257.5 10.49L 101 10L 10 10"></path><path d="M 251.5 17L 258 10.5L 251.5 4" stroke-dasharray="none"></path></g></g></g><g id="g-root-cr_2_cr-small_92470lg5rklm-stroke" data-item-order="-109412" transform="translate(590, 188)"><g id="cr_2_cr-small_92470lg5rklm-stroke" fill="none" stroke-linecap="round" stroke-linejoin="round" stroke-miterlimit="4" stroke="#3cc583" stroke-width="2"><g><path d="M 10 40C 10.000002 56.568544 23.431459 70.000002 40.000002 70.000002C 56.568544 70.000002 70.000002 56.568544 70.000002 40.000002C 70.000002 23.431459 56.568544 10.000002 40.000002 10.000002C 23.431459 10.000002 10.000002 23.431459 10.000002 40.000002"></path></g></g></g><g id="g-root-sy_1_line_4maow5g5rldv-stroke" data-item-order="-109405" transform="translate(334.5, 134)"><g id="sy_1_line_4maow5g5rldv-stroke" fill="none" stroke-linecap="round" stroke-linejoin="round" stroke-miterlimit="4" stroke="#1eabda" stroke-width="2"><g><path d="M 10 94.000046L 94 82.000046L 257.67 10.800046"></path><path d="M 254.8 19.200046L 258.1 10.600046L 249.6 7.200046" stroke-dasharray="none"></path></g></g></g><g id="g-root-cr_1_cr-small_4maow5g5rldw-stroke" data-item-order="-109404" transform="translate(590, 104.0001220703125)"><g id="cr_1_cr-small_4maow5g5rldw-stroke" fill="none" stroke-linecap="round" stroke-linejoin="round" stroke-miterlimit="4" stroke="#1eabda" stroke-width="2"><g><path d="M 10 40C 10.000002 56.568544 23.431459 70.000002 40.000002 70.000002C 56.568544 70.000002 70.000002 56.568544 70.000002 40.000002C 70.000002 23.431459 56.568544 10.000002 40.000002 10.000002C 23.431459 10.000002 10.000002 23.431459 10.000002 40.000002"></path></g></g></g><g id="g-root-tx__1ha2kjpg57wg5-stroke" data-item-order="0" transform="translate(278, 38)"></g><g id="g-root-ic_sear_4maow5g5syrs-stroke" data-item-order="0" transform="translate(602, 116)"><g id="ic_sear_4maow5g5syrs-stroke" fill="none" stroke-linecap="round" stroke-linejoin="round" stroke-miterlimit="4" stroke="#1eabda" stroke-width="2"><g><path d="M 40.375 20.125L 40.375 14.125C 40.375 12.475 39.025002 11.125 37.375 11.125L 14.125 11.125C 12.475 11.125 11.125 12.475 11.125 14.125L 11.125 20.125M 40.375 20.125L 11.125 20.125M 40.375 20.125L 30.625 20.125M 40.375 20.125L 40.375 25.674999M 11.125 20.125L 11.125 34.824997C 11.125 36.474998 12.475 37.824997 14.125 37.824997L 20.875 37.824997M 11.125 20.125L 20.875 20.125M 20.875 20.125L 20.875 37.824997M 20.875 20.125L 30.625 20.125M 20.875 37.824997L 25.075001 37.824997M 11.125 29.125L 26.875 29.125M 30.625 20.125L 30.625 25.674999M 10 10M 44.875 44.875149L 41.097847 41.098148M 43.074997 36.324997C 43.074997 40.052948 40.052948 43.074997 36.324997 43.074997C 32.59705 43.074997 29.575001 40.052948 29.575001 36.324997C 29.575001 32.597198 32.59705 29.575001 36.324997 29.575001C 40.052948 29.575001 43.074997 32.597198 43.074997 36.324997Z"></path></g></g></g><g id="g-root-tx__1lpw2o5g57vnw-stroke" data-item-order="0" transform="translate(662, 122)"></g><g id="g-root-tx__958kg5g5sz5t-stroke" data-item-order="0" transform="translate(14, 194)"></g><g id="g-root-ic_serv_1urrqmdg5rlzh-stroke" data-item-order="0" transform="translate(182, 194)"><g id="ic_serv_1urrqmdg5rlzh-stroke" fill="none" stroke-linecap="round" stroke-linejoin="round" stroke-miterlimit="4" stroke="#969696" stroke-width="2"><g><path d="M 33.900002 29.300039C 38.318199 29.300039 41.900002 27.50918 41.900002 25.300041C 41.900002 23.0909 38.318199 21.300041 33.900002 21.300041C 29.481621 21.300041 25.8999 23.0909 25.8999 25.300041C 25.8999 27.50918 29.481621 29.300039 33.900002 29.300039ZM 25.8999 25.300041L 25.8999 32.099998C 25.8999 34.299999 29.499901 36.099998 33.900002 36.099998C 38.299999 36.099998 41.900002 34.299999 41.900002 32.099998L 41.900002 25.300041M 25.8999 32.299999L 25.8999 39.099998C 25.8999 41.299999 29.499901 43.099998 33.900002 43.099998C 38.299999 43.099998 41.900002 41.299999 41.900002 39.099998L 41.900002 32.299999M 11.5 17.5L 11.5 11.5L 17.5 11.5M 10 10M 11.5 11.5L 18.5 18.5M 56.5 17.5L 56.5 11.5L 50.5 11.5M 10 10M 56.5 11.5L 49.5 18.5M 11.5 50.5L 11.5 56.5L 17.5 56.5M 10 10M 11.5 56.5L 18.5 49.5M 56.5 50.5L 56.5 56.5L 50.5 56.5M 10 10M 56.5 56.5L 49.5 49.5M 45.900002 43.700001C 50.700001 41.5 53.900002 38.099998 53.900002 34.099998C 53.900002 30.9 51.700001 27.89996 48.099998 25.699959M 20.09992 25.5C 16.299919 27.700001 13.8999 30.700001 13.8999 34.099998C 13.8999 38.099998 17.099899 41.5 21.8999 43.700001"></path></g></g></g><g id="g-root-ic_conn_3ctc5g5sydr-stroke" data-item-order="0" transform="translate(602, 200)"><g id="ic_conn_3ctc5g5sydr-stroke" fill="none" stroke-linecap="round" stroke-linejoin="round" stroke-miterlimit="4" stroke="#3cc583" stroke-width="2"><g><path d="M 45.25 17.5C 45.25 16.671574 44.578426 16 43.75 16L 36.427002 16C 35.859001 15.999697 35.339893 15.678595 35.086002 15.1705L 34.413998 13.8295C 34.160107 13.321405 33.640999 13.000303 33.072998 13L 30.25 13C 29.421572 13 28.75 13.671573 28.75 14.5L 28.75 25C 28.75 25.828428 29.421572 26.5 30.25 26.5L 43.75 26.5C 44.578426 26.5 45.25 25.828428 45.25 25ZM 45.25 35.5C 45.25 34.671574 44.578426 34 43.75 34L 36.427002 34C 35.859001 33.999695 35.339893 33.678593 35.086002 33.170498L 34.413998 31.8295C 34.160107 31.321405 33.640999 31.000303 33.072998 31L 30.25 31C 29.421572 31 28.75 31.671572 28.75 32.5L 28.75 43C 28.75 43.828426 29.421572 44.5 30.25 44.5L 43.75 44.5C 44.578426 44.5 45.25 43.828426 45.25 43ZM 10.75 11.5L 10.75 14.5M 10.75 19L 10.75 22M 10.75 26.5L 10.75 29.5M 10.75 34L 10.75 35.5C 10.75 36.328426 11.421573 37 12.25 37L 13.75 37M 10.75 20.5L 13.75 20.5M 18.25 20.5L 21.25 20.5M 25.75 20.5L 28.75 20.5M 18.25 37L 21.25 37M 25.75 37L 28.75 37"></path></g></g></g><g id="g-root-tx__1uuw41xg5t0jn-stroke" data-item-order="0" transform="translate(662, 206)"></g><g id="g-root-ic_cont_8fwlg5sxza-stroke" data-item-order="0" transform="translate(602, 284)"><g id="ic_cont_8fwlg5sxza-stroke" fill="none" stroke-linecap="round" stroke-linejoin="round" stroke-miterlimit="4" stroke="#92bd39" stroke-width="2"><g><path d="M 11.125 41.574997C 11.125 32.275002 18.658449 24.774971 28 24.774971C 37.341549 24.774971 44.875 32.275002 44.875 41.574997M 28 44.275002C 29.242599 44.275002 30.25 43.267601 30.25 42.025002C 30.25 40.782249 29.242599 39.775002 28 39.775002C 26.757401 39.775002 25.75 40.782249 25.75 42.025002C 25.75 43.267601 26.757401 44.275002 28 44.275002ZM 10 10M 23.725029 30.325001L 27.174999 39.925003M 10 10M 32.275002 30.325001L 31.525002 32.424999M 10 10M 38.800003 35.875L 36.550003 37.224998M 10 10M 17.199986 35.875L 19.449986 37.224998M 10 10M 40.300003 44.125L 38.050003 43.824997M 10 10M 15.699985 44.125L 17.949986 43.824997M 10 10M 17.199986 11.72503L 20.59297 20.296825M 10 10M 16 18.92503L 20.5 20.42503L 22.900015 16.225031"></path></g></g></g><g id="g-root-tx__9lk79g5szyi-stroke" data-item-order="0" transform="translate(662, 278)"></g></g></g><path id="w18n6duderpfri" d="M65.283 12.757a.35.35 0 0 0 .584.157l5.203-5.141-6.183 3.523.396 1.461zm-2.216-11.7a.35.35 0 0 0-.522.305v3.111l3.276-1.868-2.754-1.548zm3.728 2.105l-4.25 2.421v2.445l6.391-3.644-2.141-1.222zm4.708 3.303a.35.35 0 0 0 0-.609l-1.592-.9-7.365 4.199v1.782a.35.35 0 0 0 .523.305l8.435-4.777z M44.542 2.513c0-.433.355-.783.792-.783s.792.35.792.783-.355.783-.792.783-.792-.35-.792-.783zm59.171 0c0-.433.355-.783.792-.783s.792.35.792.783-.355.783-.792.783-.792-.35-.792-.783zm-85.951 7.636h-1.27v-.487c-.276.201-.864.609-1.881.609-1.202 0-2.274-.794-2.137-2.078.118-1.106 1.153-1.584 1.848-1.727l2.17-.345c0-.539-.29-.956-1.064-1.006s-1.21.305-1.571 1.017l-1.124-.605c1.218-2.631 5.029-1.764 5.029.414v4.207zm-1.27-2.86c.006.396-.062 1.112-.819 1.59-.587.37-1.841.299-1.903-.395-.049-.555.461-.791.906-.898l1.816-.297zm72.662 2.86h-1.27v-.487c-.276.201-.864.609-1.881.609-1.202 0-2.274-.794-2.137-2.078.118-1.106 1.153-1.584 1.848-1.727l2.17-.345c0-.539-.29-.956-1.064-1.006s-1.21.305-1.571 1.017l-1.124-.605c1.218-2.631 5.029-1.764 5.029.414v4.207zm-1.27-2.86c.006.396-.062 1.112-.82 1.59-.587.37-1.841.299-1.903-.395-.049-.555.461-.791.906-.898l1.816-.297zM99.096 10.149H97.85v-8.45h1.246v4.895l2.68-2.559h1.738l-2.633 2.535 2.715 3.578h-1.556l-2.077-2.707-.867.844v1.863zm6.053-6.114h-1.255v6.113h1.255V4.035zm-59.2 0h-1.255v6.113h1.255V4.035zm5.584 6.113V1.697h1.255v2.695c.361-.346 1-.485 1.47-.485 1.452 0 2.477 1.082 2.457 2.448v3.792h-1.27v-3.68c0-.408-.214-1.339-1.315-1.339-.968 0-1.342.756-1.342 1.339v3.681h-1.255zm-4.76-4.894V4.039h.621a.45.45 0 0 0 .45-.45v-.855h1.251v1.305h1.309v1.215h-1.309v3.109c0 .293.105.664.648.664.365 0 .531-.035.736-.07v1.137s-.361.113-.857.113c-1.398 0-1.777-1.051-1.777-1.788V5.254h-1.071zM36.528 4.039h-1.394l2.191 6.106h1.125l1.234-3.918 1.238 3.918h1.129l2.188-6.106h-1.383l-1.359 3.93-1.256-3.93h-1.124l-1.242 3.957-1.348-3.957zM26.212 7.141c-.02 1.566 1.187 3.129 3.223 3.129 1.566 0 2.383-.918 2.734-1.719L31.172 8c-.315.399-.801 1.094-1.738 1.094-1.145 0-1.825-.781-1.891-1.52h4.625c.074-.284.148-.995-.03-1.559-.336-1.064-1.221-2.102-2.839-2.102s-3.088 1.152-3.088 3.227zm1.363-.75h3.348c-.055-.43-.566-1.301-1.623-1.301a1.79 1.79 0 0 0-1.725 1.301zm-8.758.75c.038 1.758 1.277 3.133 3.145 3.133 1.074 0 1.723-.477 1.961-.672v.547h1.242V1.703h-1.258v2.888c-.414-.36-1.062-.68-1.93-.68-1.91 0-3.198 1.473-3.16 3.23zm1.309-.08c0 1.119.723 1.978 1.836 1.978a1.88 1.88 0 0 0 1.94-1.904c0-1.371-1.011-1.99-1.972-1.99s-1.805.798-1.805 1.916zm76.683-.028C96.771 5.275 95.532 3.9 93.664 3.9c-1.074 0-1.723.477-1.961.672v-.547h-1.242v8.22h1.258V9.583c.414.36 1.063.68 1.93.68 1.91 0 3.198-1.473 3.16-3.23zm-1.309.08c0-1.119-.723-1.978-1.836-1.978a1.88 1.88 0 0 0-1.94 1.904c0 1.371 1.011 1.99 1.972 1.99S95.5 8.231 95.5 7.113zM106.441 10.173V4.036h1.254v.382c.361-.346 1-.485 1.47-.485 1.452 0 2.477 1.082 2.457 2.448v3.792h-1.27V6.492c0-.408-.214-1.339-1.315-1.339-.969 0-1.342.756-1.342 1.339v3.681h-1.254zm-30.383-.021V1.824h1.084l4.215 5.777V1.824h1.32v8.328h-1.094l-4.207-5.796v5.796h-1.319zM5.24 10.149H4V2.377h1.014l2.664 3.597 2.654-3.592h1.03v7.766h-1.256V4.762L7.678 8.068 5.24 4.742v5.407z" transform="translate(20, 360)" fill="#80808088" stroke="none"></path></svg>