<?xml version="1.0" encoding="utf-8" standalone="yes"?>
<!DOCTYPE svg PUBLIC "-//W3C//DTD SVG 1.1//EN" "http://www.w3.org/Graphics/SVG/1.1/DTD/svg11.dtd">
<svg width="677" height="468" viewBox="0 0 677 468" style="fill:none;stroke:none;fill-rule:evenodd;clip-rule:evenodd;stroke-linecap:round;stroke-linejoin:round;stroke-miterlimit:1.5;" version="1.1" xmlns="http://www.w3.org/2000/svg" xmlns:xlink="http://www.w3.org/1999/xlink"><style class="text-font-style fontImports" data-font-family="Roboto">@import url('https://fonts.googleapis.com/css2?family=Roboto:wght@400;700&amp;display=block');</style><g id="items" style="isolation: isolate"><g id="blend" style="mix-blend-mode: normal"><g id="g-root-cr_0_cr-big_i09w4jf1qfpk-fill" data-item-order="-82940" transform="translate(265.9999694824219, 191.60009765625)"><g id="cr_0_cr-big_i09w4jf1qfpk-fill" stroke="none" fill="#f5f5f5"><g><path d="M 10 70C 10.000003 103.137088 36.862918 130.000003 70.000003 130.000003C 103.137088 130.000003 130.000003 103.137088 130.000003 70.000003C 130.000003 36.862918 103.137088 10.000003 70.000003 10.000003C 36.862918 10.000003 10.000003 36.862918 10.000003 70.000003"></path></g></g></g><g id="g-root-sy_4_cu_dl2v37f1qdc1-fill" data-item-order="-82936" transform="translate(182.02587890625, 107.594482421875)"><g id="sy_4_cu_dl2v37f1qdc1-fill" stroke="none" fill="#f4ffdc"><g><path d="M 153.974 94L 153.974 10C 74.4569 10.0141 10.000008 74.4797 10.000003 154L 10 154.005L 94.0002 154.005L 94.0002 154C 94.0002 120.872 120.849 94.0141 153.974 94Z"></path></g></g></g><g id="g-root-sy_3_cu_4pfuubf1qe4q-fill" data-item-order="-82932" transform="translate(182.008056640625, 251.599853515625)"><g id="sy_3_cu_4pfuubf1qe4q-fill" stroke="none" fill="#ffeceb"><g><path d="M 94 10L 10 10.000003C 10.0075 89.52 74.4713 153.982 153.992 153.986L 153.992 69.9858C 120.863 69.9815 94.0077 43.1279 94 10Z"></path></g></g></g><g id="g-root-sy_2_cu_4pfuubf1qe4r-fill" data-item-order="-82928" transform="translate(325.99957275390625, 251.6038818359375)"><g id="sy_2_cu_4pfuubf1qe4r-fill" stroke="none" fill="#e8f9ff"><g><path d="M 10 70C 43.1369 69.9998 69.9997 43.137 69.9997 10.000008L 154 10C 154 89.5289 89.5289 154 10.000062 154L 10 70Z"></path></g></g></g><g id="g-root-sy_1_cu_9mcpvf1qex0-fill" data-item-order="-82924" transform="translate(325.99993896484375, 107.61181640625)"><g id="sy_1_cu_9mcpvf1qex0-fill" stroke="none" fill="#e3fff2"><g><path d="M 70.0067 153.988L 154.007 153.988C 154 74.4645 89.5318 9.999996 10.0068 10L 10 10L 10.000002 94.0001C 10.0022 94.0001 10.0045 94.0001 10.0067 94.0001C 43.1398 94.0001 70.0002 120.856 70.0067 153.988Z"></path></g></g></g><g id="g-root-tx_astradb_1qf3eg3f1qfil-fill" data-item-order="0" transform="translate(205.99993896484375, 14)"><g id="tx_astradb_1qf3eg3f1qfil-fill" stroke="none" fill="#484848"><g><text style="font: 20px Roboto, sans-serif; white-space: pre;" font-size="20px" font-family="Roboto, sans-serif"><tspan x="22.66" y="52" dominant-baseline="ideographic">Astra DB のおもな特徴</tspan></text></g></g></g><g id="g-root-tx__143mk83f1t6va-fill" data-item-order="0" transform="translate(445.99993896484375, 83.5999755859375)"><g id="tx__143mk83f1t6va-fill" stroke="none" fill="#484848"><g><text style="font: 20px Roboto, sans-serif; white-space: pre;" font-size="20px" font-family="Roboto, sans-serif"><tspan x="12" y="34" dominant-baseline="ideographic">スケーラビリティ</tspan><tspan x="12" y="58" dominant-baseline="ideographic">と柔軟性</tspan></text></g></g></g><g id="g-root-tx__1upx3vnf1t6v7-fill" data-item-order="0" transform="translate(61.99993896484375, 107.5999755859375)"><g id="tx__1upx3vnf1t6v7-fill" stroke="none" fill="#484848"><g><text style="font: 20px Roboto, sans-serif; white-space: pre;" font-size="20px" font-family="Roboto, sans-serif"><tspan x="12" y="34" dominant-baseline="ideographic">開発効率の向上</tspan></text></g></g></g><g id="g-root-ic_2_v6qlszf1rs3z-fill" data-item-order="0" transform="translate(229.93707275390625, 155.413330078125)"></g><g id="g-root-ic_auto_zkooo3f1t6h6-fill" data-item-order="0" transform="translate(374.18670654296875, 155.536865234375)"></g><g id="g-root-ic_text_1lpws0zf1rrpi-fill" data-item-order="0" transform="translate(289.99993896484375, 215.5960693359375)"></g><g id="g-root-ic_lock_1qbz10jf1rsi0-fill" data-item-order="0" transform="translate(229.81317138671875, 299.6630859375)"></g><g id="g-root-ic_arro_dkge03f1rtvt-fill" data-item-order="0" transform="translate(374.06317138671875, 299.78662109375)"></g><g id="g-root-tx__1heglibf1t8g4-fill" data-item-order="0" transform="translate(25.99993896484375, 333.599853515625)"><g id="tx__1heglibf1t8g4-fill" stroke="none" fill="#484848"><g><text style="font: 20px Roboto, sans-serif; white-space: pre;" font-size="20px" font-family="Roboto, sans-serif"><tspan x="12" y="46" dominant-baseline="ideographic">エンタープライズ</tspan><tspan x="12" y="70" dominant-baseline="ideographic">レベルのセキュリティ</tspan></text></g></g></g><g id="g-root-tx__18jg2cjf1t631-fill" data-item-order="0" transform="translate(457.99993896484375, 332)"><g id="tx__18jg2cjf1t631-fill" stroke="none" fill="#484848"><g><text style="font: 20px Roboto, sans-serif; white-space: pre;" font-size="20px" font-family="Roboto, sans-serif"><tspan x="12" y="52" dominant-baseline="ideographic">マルチクラウド対応</tspan></text></g></g></g><g id="g-root-cr_0_cr-big_i09w4jf1qfpk-stroke" data-item-order="-82940" transform="translate(265.9999694824219, 191.60009765625)"><g id="cr_0_cr-big_i09w4jf1qfpk-stroke" fill="none" stroke-linecap="round" stroke-linejoin="round" stroke-miterlimit="4" stroke="#969696" stroke-width="2"><g><path d="M 10 70C 10.000003 103.137088 36.862918 130.000003 70.000003 130.000003C 103.137088 130.000003 130.000003 103.137088 130.000003 70.000003C 130.000003 36.862918 103.137088 10.000003 70.000003 10.000003C 36.862918 10.000003 10.000003 36.862918 10.000003 70.000003"></path></g></g></g><g id="g-root-sy_4_cu_dl2v37f1qdc1-stroke" data-item-order="-82936" transform="translate(182.02587890625, 107.594482421875)"><g id="sy_4_cu_dl2v37f1qdc1-stroke" fill="none" stroke-linecap="round" stroke-linejoin="round" stroke-miterlimit="4" stroke="#92bd39" stroke-width="2"><g><path d="M 153.974 94L 153.974 10C 74.4569 10.0141 10 74.4797 10 154L 10 154.0054L 94.0002 154.0054L 94.0002 154C 94.0002 120.8716 120.8489 94.0141 153.974 94Z"></path></g></g></g><g id="g-root-sy_3_cu_4pfuubf1qe4q-stroke" data-item-order="-82932" transform="translate(182.008056640625, 251.599853515625)"><g id="sy_3_cu_4pfuubf1qe4q-stroke" fill="none" stroke-linecap="round" stroke-linejoin="round" stroke-miterlimit="4" stroke="#e55753" stroke-width="2"><g><path d="M 94 10L 10 10C 10.0075 89.52 74.4713 153.9819 153.992 153.9862L 153.992 69.9858C 120.8633 69.9815 94.0077 43.1279 94 10Z"></path></g></g></g><g id="g-root-sy_2_cu_4pfuubf1qe4r-stroke" data-item-order="-82928" transform="translate(325.99957275390625, 251.6038818359375)"><g id="sy_2_cu_4pfuubf1qe4r-stroke" fill="none" stroke-linecap="round" stroke-linejoin="round" stroke-miterlimit="4" stroke="#1eabda" stroke-width="2"><g><path d="M 10 70C 43.1369 69.9998 69.9997 43.137 69.9997 10L 153.9998 10C 153.9998 89.5289 89.5289 153.9998 10.0001 154L 10 70Z"></path></g></g></g><g id="g-root-sy_1_cu_9mcpvf1qex0-stroke" data-item-order="-82924" transform="translate(325.99993896484375, 107.61181640625)"><g id="sy_1_cu_9mcpvf1qex0-stroke" fill="none" stroke-linecap="round" stroke-linejoin="round" stroke-miterlimit="4" stroke="#3cc583" stroke-width="2"><g><path d="M 70.0067 153.988L 154.0068 153.988C 154.0003 74.4645 89.5318 10 10.0068 10L 10 10L 10 94.0001C 10.0022 94.0001 10.0045 94.0001 10.0067 94.0001C 43.1398 94.0001 70.0002 120.8565 70.0067 153.988Z"></path></g></g></g><g id="g-root-tx_astradb_1qf3eg3f1qfil-stroke" data-item-order="0" transform="translate(205.99993896484375, 14)"></g><g id="g-root-tx__143mk83f1t6va-stroke" data-item-order="0" transform="translate(445.99993896484375, 83.5999755859375)"></g><g id="g-root-tx__1upx3vnf1t6v7-stroke" data-item-order="0" transform="translate(61.99993896484375, 107.5999755859375)"></g><g id="g-root-ic_2_v6qlszf1rs3z-stroke" data-item-order="0" transform="translate(229.93707275390625, 155.413330078125)"><g id="ic_2_v6qlszf1rs3z-stroke" fill="none" stroke-linecap="round" stroke-linejoin="round" stroke-miterlimit="4" stroke="#92bd39" stroke-width="2"><g><path d="M 17 55L 12.98 50C 11.693836 48.408497 10.9884 46.426224 10.98 44.380001L 10.98 34C 10.979982 33.200874 11.298797 32.434765 11.865739 31.871578C 12.432681 31.30839 13.200891 30.994673 14 31L 14 31C 15.656855 31 17 32.343147 17 34L 17 41.739998M 26 55L 26 48.720001C 26.003548 46.945229 25.47401 45.210293 24.48 43.739998L 22.200001 40.299999C 21.800718 39.636154 21.145927 39.165794 20.389343 38.999344C 19.632763 38.832893 18.841024 38.98502 18.200001 39.419998L 18.200001 39.419998C 17.030144 40.206558 16.62746 41.740185 17.26 43L 20 47.5M 51 55L 55 49.959999C 56.286163 48.3685 56.9916 46.386223 57 44.34L 57 34C 57 32.343147 55.656857 31 54 31L 54 31C 52.343147 31 51 32.343147 51 34L 51 41.739998M 42 55L 42 48.720001C 41.996452 46.945229 42.52599 45.210293 43.52 43.739998L 45.799999 40.299999C 46.199284 39.636154 46.854073 39.165794 47.610657 38.999344C 48.367237 38.832893 49.158974 38.98502 49.799999 39.419998L 49.799999 39.419998C 50.969856 40.206558 51.37254 41.740185 50.740002 43L 48 47.5M 43 14L 51 22L 43 30M 27 14L 19 22L 27 30M 37 13L 33 31"></path></g></g></g><g id="g-root-ic_auto_zkooo3f1t6h6-stroke" data-item-order="0" transform="translate(374.18670654296875, 155.536865234375)"><g id="ic_auto_zkooo3f1t6h6-stroke" fill="none" stroke-linecap="round" stroke-linejoin="round" stroke-miterlimit="4" stroke="#3cc583" stroke-width="2"><g><path d="M 40.5 38.5C 40.5 39.700001 39.700001 40.5 38.5 40.5L 29.5 40.5C 28.299999 40.5 27.5 39.700001 27.5 38.5L 27.5 29.5C 27.5 28.299999 28.299999 27.5 29.5 27.5L 38.5 27.5C 39.700001 27.5 40.5 28.299999 40.5 29.5L 40.5 38.5ZM 10 10M 17.5 30.1L 21.5 34.099998L 17.5 38.099998M 21.5 34.099998L 11.5 34.099998M 10 10M 50.5 30.1L 46.5 34.099998L 50.5 38.099998M 46.5 34.099998L 56.5 34.099998M 10 10M 30.1 15.5L 34.099998 11.5L 38.099998 15.5M 34.099998 11.5L 34.099998 21.5M 10 10M 30.1 52.5L 34.099998 56.5L 38.099998 52.5M 34.099998 56.5L 34.099998 46.5"></path></g></g></g><g id="g-root-ic_text_1lpws0zf1rrpi-stroke" data-item-order="0" transform="translate(289.99993896484375, 215.5960693359375)"><g id="ic_text_1lpws0zf1rrpi-stroke" fill="none" stroke-linecap="round" stroke-linejoin="round" stroke-miterlimit="4" stroke="#969696" stroke-width="2"><g><path d="M 71.5 51.718002C 76.210678 49.540482 79.163528 44.75803 78.999992 39.570999C 78.943207 35.732628 77.327477 32.082497 74.524284 29.459816C 71.7211 26.837135 67.971657 25.467569 64.138 25.666C 60.71978 18.786242 53.681999 14.453689 46 14.5C 35.53157 14.359555 26.760252 22.387115 25.974998 32.827C 22.849718 32.139866 19.580996 32.88987 17.067883 34.870728C 14.554768 36.851585 13.061942 39.854671 13 43.054001C 12.750524 47.730114 15.925615 51.898373 20.5 52.900002M 61 77.5L 31 77.5C 29.343145 77.5 28 76.156853 28 74.5L 28 44.5C 28 42.843143 29.343145 41.5 31 41.5L 61 41.5C 62.656853 41.5 64 42.843143 64 44.5L 64 74.5C 64 76.156853 62.656853 77.5 61 77.5ZM 37 50.5L 55 50.5M 37 59.5L 55 59.5M 37 68.5L 43.75 68.5"></path></g></g></g><g id="g-root-ic_lock_1qbz10jf1rsi0-stroke" data-item-order="0" transform="translate(229.81317138671875, 299.6630859375)"><g id="ic_lock_1qbz10jf1rsi0-stroke" fill="none" stroke-linecap="round" stroke-linejoin="round" stroke-miterlimit="4" stroke="#e55753" stroke-width="2"><g><path d="M 35.526001 45.495998L 15.378 45.495998C 13.069907 45.493793 11.199999 43.622093 11.2 41.314003L 11.2 15.182C 11.199999 12.873906 13.069907 11.002208 15.378 11L 46.737999 11C 49.046875 11.001104 50.918003 12.873126 50.918003 15.182L 50.917999 27.854M 11.196 19.166L 50.917999 19.166M 11.196 36.515999L 35.526001 36.515999M 11.196 27.854L 50.917999 27.854M 27.42 19.166L 27.42 45.495998M 39.052002 19.166L 39.052002 33.206001M 39.672001 45.104C 39.671997 43.461506 41.003502 42.130001 42.646 42.130001L 53.830002 42.130001C 55.470932 42.132206 56.799999 43.463066 56.799999 45.104L 56.799999 54.026001C 56.799999 55.666935 55.470932 56.997791 53.829998 57L 42.646 57C 41.003502 57 39.671997 55.668495 39.671997 54.026001ZM 48.237999 33.200001L 48.237999 33.200001C 45.019161 33.266701 42.463272 35.929119 42.528 39.147999L 42.528 42.124001L 53.948002 42.124001L 53.948002 39.153999C 54.01609 35.9328 51.459229 33.266678 48.237999 33.199997ZM 48.237999 47.481998C 47.359489 47.446079 46.547329 47.94772 46.186138 48.749352C 45.824951 49.550987 45.987244 50.49168 46.596161 51.125946C 47.205082 51.760212 48.138378 51.960716 48.954067 51.6325C 49.76976 51.304287 50.304085 50.513248 50.304001 49.634003C 50.327431 48.469349 49.40263 47.506054 48.237999 47.481998L 48.237999 47.481998"></path></g></g></g><g id="g-root-ic_arro_dkge03f1rtvt-stroke" data-item-order="0" transform="translate(374.06317138671875, 299.78662109375)"><g id="ic_arro_dkge03f1rtvt-stroke" fill="none" stroke-linecap="round" stroke-linejoin="round" stroke-miterlimit="4" stroke="#1eabda" stroke-width="2"><g><path d="M 23.94796 22.671879L 20.273441 22.671879C 15.85516 22.671879 12.273439 26.253599 12.273439 30.671801L 12.273439 41.125C 12.273439 45.543201 15.85516 49.125 20.273441 49.125L 31.763201 49.125M 48.891201 33.711601C 52.620602 33.711601 55.7286 30.4484 55.7286 26.718941C 55.7286 22.9895 52.620602 19.88162 48.891201 19.88162C 47.492599 19.88162 46.0942 20.347801 45.006401 21.124779C 44.074001 16.307579 39.878403 12.57812 34.750401 12.57812C 29.000799 12.57812 24.183601 17.239941 24.183601 23.144901C 24.183601 29.04986 28.8454 33.711601 34.750401 33.711601L 48.891201 33.711601ZM 10 10M 41.109398 49.125L 55.726601 49.125M 10 10M 26.144541 42.828201L 32.4394 49.119202L 26.144541 55.4142M 10 10M 46.6954 55.421799L 40.399002 49.129398L 46.6954 42.833"></path></g></g></g><g id="g-root-tx__1heglibf1t8g4-stroke" data-item-order="0" transform="translate(25.99993896484375, 333.599853515625)"></g><g id="g-root-tx__18jg2cjf1t631-stroke" data-item-order="0" transform="translate(457.99993896484375, 332)"></g></g></g><path id="whu0m4ke7vv29" d="M65.283 12.757a.35.35 0 0 0 .584.157l5.203-5.141-6.183 3.523.396 1.461zm-2.216-11.7a.35.35 0 0 0-.522.305v3.111l3.276-1.868-2.754-1.548zm3.728 2.105l-4.25 2.421v2.445l6.391-3.644-2.141-1.222zm4.708 3.303a.35.35 0 0 0 0-.609l-1.592-.9-7.365 4.199v1.782a.35.35 0 0 0 .523.305l8.435-4.777z M44.542 2.513c0-.433.355-.783.792-.783s.792.35.792.783-.355.783-.792.783-.792-.35-.792-.783zm59.171 0c0-.433.355-.783.792-.783s.792.35.792.783-.355.783-.792.783-.792-.35-.792-.783zm-85.951 7.636h-1.27v-.487c-.276.201-.864.609-1.881.609-1.202 0-2.274-.794-2.137-2.078.118-1.106 1.153-1.584 1.848-1.727l2.17-.345c0-.539-.29-.956-1.064-1.006s-1.21.305-1.571 1.017l-1.124-.605c1.218-2.631 5.029-1.764 5.029.414v4.207zm-1.27-2.86c.006.396-.062 1.112-.819 1.59-.587.37-1.841.299-1.903-.395-.049-.555.461-.791.906-.898l1.816-.297zm72.662 2.86h-1.27v-.487c-.276.201-.864.609-1.881.609-1.202 0-2.274-.794-2.137-2.078.118-1.106 1.153-1.584 1.848-1.727l2.17-.345c0-.539-.29-.956-1.064-1.006s-1.21.305-1.571 1.017l-1.124-.605c1.218-2.631 5.029-1.764 5.029.414v4.207zm-1.27-2.86c.006.396-.062 1.112-.82 1.59-.587.37-1.841.299-1.903-.395-.049-.555.461-.791.906-.898l1.816-.297zM99.096 10.149H97.85v-8.45h1.246v4.895l2.68-2.559h1.738l-2.633 2.535 2.715 3.578h-1.556l-2.077-2.707-.867.844v1.863zm6.053-6.114h-1.255v6.113h1.255V4.035zm-59.2 0h-1.255v6.113h1.255V4.035zm5.584 6.113V1.697h1.255v2.695c.361-.346 1-.485 1.47-.485 1.452 0 2.477 1.082 2.457 2.448v3.792h-1.27v-3.68c0-.408-.214-1.339-1.315-1.339-.968 0-1.342.756-1.342 1.339v3.681h-1.255zm-4.76-4.894V4.039h.621a.45.45 0 0 0 .45-.45v-.855h1.251v1.305h1.309v1.215h-1.309v3.109c0 .293.105.664.648.664.365 0 .531-.035.736-.07v1.137s-.361.113-.857.113c-1.398 0-1.777-1.051-1.777-1.788V5.254h-1.071zM36.528 4.039h-1.394l2.191 6.106h1.125l1.234-3.918 1.238 3.918h1.129l2.188-6.106h-1.383l-1.359 3.93-1.256-3.93h-1.124l-1.242 3.957-1.348-3.957zM26.212 7.141c-.02 1.566 1.187 3.129 3.223 3.129 1.566 0 2.383-.918 2.734-1.719L31.172 8c-.315.399-.801 1.094-1.738 1.094-1.145 0-1.825-.781-1.891-1.52h4.625c.074-.284.148-.995-.03-1.559-.336-1.064-1.221-2.102-2.839-2.102s-3.088 1.152-3.088 3.227zm1.363-.75h3.348c-.055-.43-.566-1.301-1.623-1.301a1.79 1.79 0 0 0-1.725 1.301zm-8.758.75c.038 1.758 1.277 3.133 3.145 3.133 1.074 0 1.723-.477 1.961-.672v.547h1.242V1.703h-1.258v2.888c-.414-.36-1.062-.68-1.93-.68-1.91 0-3.198 1.473-3.16 3.23zm1.309-.08c0 1.119.723 1.978 1.836 1.978a1.88 1.88 0 0 0 1.94-1.904c0-1.371-1.011-1.99-1.972-1.99s-1.805.798-1.805 1.916zm76.683-.028C96.771 5.275 95.532 3.9 93.664 3.9c-1.074 0-1.723.477-1.961.672v-.547h-1.242v8.22h1.258V9.583c.414.36 1.063.68 1.93.68 1.91 0 3.198-1.473 3.16-3.23zm-1.309.08c0-1.119-.723-1.978-1.836-1.978a1.88 1.88 0 0 0-1.94 1.904c0 1.371 1.011 1.99 1.972 1.99S95.5 8.231 95.5 7.113zM106.441 10.173V4.036h1.254v.382c.361-.346 1-.485 1.47-.485 1.452 0 2.477 1.082 2.457 2.448v3.792h-1.27V6.492c0-.408-.214-1.339-1.315-1.339-.969 0-1.342.756-1.342 1.339v3.681h-1.254zm-30.383-.021V1.824h1.084l4.215 5.777V1.824h1.32v8.328h-1.094l-4.207-5.796v5.796h-1.319zM5.24 10.149H4V2.377h1.014l2.664 3.597 2.654-3.592h1.03v7.766h-1.256V4.762L7.678 8.068 5.24 4.742v5.407z" transform="translate(546.9999389648438, 440)" fill="#80808088" stroke="none"></path></svg>