<?xml version="1.0" encoding="utf-8" standalone="yes"?>
<!DOCTYPE svg PUBLIC "-//W3C//DTD SVG 1.1//EN" "http://www.w3.org/Graphics/SVG/1.1/DTD/svg11.dtd">
<svg width="757" height="406" viewBox="0 0 757 406" style="fill:none;stroke:none;fill-rule:evenodd;clip-rule:evenodd;stroke-linecap:round;stroke-linejoin:round;stroke-miterlimit:1.5;" version="1.1" xmlns="http://www.w3.org/2000/svg" xmlns:xlink="http://www.w3.org/1999/xlink"><style class="text-font-style fontImports" data-font-family="Roboto">@import url('https://fonts.googleapis.com/css2?family=Roboto:wght@400;700&amp;display=block');</style><g id="items" style="isolation: isolate"><g id="blend" style="mix-blend-mode: normal"><g id="g-root-sy_1_cu_1useaube7kkqq-fill" data-item-order="-128140" transform="translate(14, 98)"><g id="sy_1_cu_1useaube7kkqq-fill" stroke="none" fill="#edf4ff"><g><path d="M 10 106L 10 10L 226 10L 178 34L 178 106L 10 106Z"></path></g></g></g><g id="g-root-sy_2_cu_1lwralfe7kljf-fill" data-item-order="-128136" transform="translate(182.00009155273438, 98)"><g id="sy_2_cu_1lwralfe7kljf-fill" stroke="none" fill="#e3fff2"><g><path d="M 10 130L 10 34L 226 34L 178 58L 178 130L 10 130ZM 58 10L 58 34L 10 34L 58 10Z"></path></g></g></g><g id="g-root-sy_3_cu_1hgxsgze7kmbo-fill" data-item-order="-128132" transform="translate(350.00006103515625, 122)"><g id="sy_3_cu_1hgxsgze7kmbo-fill" stroke="none" fill="#e8f9ff"><g><path d="M 10 130L 10 34L 226 34L 178 58L 178 130L 10 130ZM 58.000022 10L 58.000022 34L 10.000122 34L 58.000022 10Z"></path></g></g></g><g id="g-root-sy_4_cu_18lx9b7e7kjyl-fill" data-item-order="-128128" transform="translate(518.0001220703125, 146)"><g id="sy_4_cu_18lx9b7e7kjyl-fill" stroke="none" fill="#f4ffdc"><g><path d="M 10 130L 10 34L 166 34L 166 22L 214 82L 166 143L 166 130L 10 130ZM 57.9999 10L 57.9999 34L 10 34L 57.9999 10Z"></path></g></g></g><g id="g-root-tx__1463r6re7kkqu-fill" data-item-order="0" transform="translate(200, 38)"><g id="tx__1463r6re7kkqu-fill" stroke="none" fill="#484848"><g><text style="font: bold 20px Roboto, sans-serif; white-space: pre;" font-weight="bold" font-size="20px" font-family="Roboto, sans-serif"><tspan x="16" y="37.2" dominant-baseline="ideographic">映画プロットのベクトル埋め込み</tspan></text></g></g></g><g id="g-root-tx__hzmpnne7kjyn-fill" data-item-order="0" transform="translate(26, 122)"><g id="tx__hzmpnne7kjyn-fill" stroke="none" fill="#4e88e7"><g><text style="font: 20px Roboto, sans-serif; white-space: pre;" font-size="20px" font-family="Roboto, sans-serif"><tspan x="12" y="34" dominant-baseline="ideographic">映画プロットを</tspan><tspan x="42" y="58" dominant-baseline="ideographic">特定する</tspan></text></g></g></g><g id="g-root-tx__1uu9q3ne7kjr5-fill" data-item-order="0" transform="translate(194, 146)"><g id="tx__1uu9q3ne7kjr5-fill" stroke="none" fill="#3cc583"><g><text style="font: 20px Roboto, sans-serif; white-space: pre;" font-size="20px" font-family="Roboto, sans-serif"><tspan x="12" y="34" dominant-baseline="ideographic">数値リストに変</tspan><tspan x="52" y="58" dominant-baseline="ideographic">換する</tspan></text></g></g></g><g id="g-root-tx_ai_18n67hfe7km4r-fill" data-item-order="0" transform="translate(362, 170)"><g id="tx_ai_18n67hfe7km4r-fill" stroke="none" fill="#1eabda"><g><text style="font: 20px Roboto, sans-serif; white-space: pre;" font-size="20px" font-family="Roboto, sans-serif"><tspan x="12.76" y="34" dominant-baseline="ideographic">AIモデルを適用</tspan><tspan x="62.01" y="58" dominant-baseline="ideographic">する</tspan></text></g></g></g><g id="g-root-tx__i0vntve7km4t-fill" data-item-order="0" transform="translate(530, 194)"><g id="tx__i0vntve7km4t-fill" stroke="none" fill="#92bd39"><g><text style="font: 20px Roboto, sans-serif; white-space: pre;" font-size="20px" font-family="Roboto, sans-serif"><tspan x="12" y="34" dominant-baseline="ideographic">多次元空間に埋</tspan><tspan x="52" y="58" dominant-baseline="ideographic">め込む</tspan></text></g></g></g><g id="g-root-tx__93zpere7klj4-fill" data-item-order="0" transform="translate(26, 218)"><g id="tx__93zpere7klj4-fill" stroke="none" fill="#484848"><g><text style="font: 20px Roboto, sans-serif; white-space: pre;" font-size="20px" font-family="Roboto, sans-serif"><tspan x="12" y="34" dominant-baseline="ideographic">映画ストーリー</tspan><tspan x="12" y="58" dominant-baseline="ideographic">の重要な要素を</tspan><tspan x="12" y="82" dominant-baseline="ideographic">決定する</tspan></text></g></g></g><g id="g-root-tx__1hit7qbe7klc2-fill" data-item-order="0" transform="translate(194, 242)"><g id="tx__1hit7qbe7klc2-fill" stroke="none" fill="#484848"><g><text style="font: 20px Roboto, sans-serif; white-space: pre;" font-size="20px" font-family="Roboto, sans-serif"><tspan x="12" y="34" dominant-baseline="ideographic">ストーリー要素</tspan><tspan x="12" y="58" dominant-baseline="ideographic">を数値形式に変</tspan><tspan x="12" y="82" dominant-baseline="ideographic">換する</tspan></text></g></g></g><g id="g-root-tx_ai_vcc677e7kkjw-fill" data-item-order="0" transform="translate(362, 266)"><g id="tx_ai_vcc677e7kkjw-fill" stroke="none" fill="#484848"><g><text style="font: 20px Roboto, sans-serif; white-space: pre;" font-size="20px" font-family="Roboto, sans-serif"><tspan x="12" y="34" dominant-baseline="ideographic">AIモデルを使用</tspan><tspan x="12" y="58" dominant-baseline="ideographic">して埋め込みを</tspan><tspan x="12" y="82" dominant-baseline="ideographic">生成する</tspan></text></g></g></g><g id="g-root-tx__4g215ve7lz4e-fill" data-item-order="0" transform="translate(530, 290)"><g id="tx__4g215ve7lz4e-fill" stroke="none" fill="#484848"><g><text style="font: 20px Roboto, sans-serif; white-space: pre;" font-size="20px" font-family="Roboto, sans-serif"><tspan x="12" y="34" dominant-baseline="ideographic">数値を多次元空</tspan><tspan x="12" y="58" dominant-baseline="ideographic">間に配置する</tspan></text></g></g></g><g id="g-root-sy_1_cu_1useaube7kkqq-stroke" data-item-order="-128140" transform="translate(14, 98)"><g id="sy_1_cu_1useaube7kkqq-stroke" fill="none" stroke-linecap="round" stroke-linejoin="round" stroke-miterlimit="4" stroke="#4e88e7" stroke-width="2"><g><path d="M 10 106L 10 10L 226 10L 178 34L 178 106L 10 106Z"></path></g></g></g><g id="g-root-sy_2_cu_1lwralfe7kljf-stroke" data-item-order="-128136" transform="translate(182.00009155273438, 98)"><g id="sy_2_cu_1lwralfe7kljf-stroke" fill="none" stroke-linecap="round" stroke-linejoin="round" stroke-miterlimit="4" stroke="#3cc583" stroke-width="2"><g><path d="M 10 130L 10 34L 226 34L 178 58L 178 130L 10 130ZM 58 10L 58 34L 10 34L 58 10Z"></path></g></g></g><g id="g-root-sy_3_cu_1hgxsgze7kmbo-stroke" data-item-order="-128132" transform="translate(350.00006103515625, 122)"><g id="sy_3_cu_1hgxsgze7kmbo-stroke" fill="none" stroke-linecap="round" stroke-linejoin="round" stroke-miterlimit="4" stroke="#1eabda" stroke-width="2"><g><path d="M 10 130L 10 34L 226 34L 178 58L 178 130L 10 130ZM 58.000022 10L 58.000022 34L 10.000122 34L 58.000022 10Z"></path></g></g></g><g id="g-root-sy_4_cu_18lx9b7e7kjyl-stroke" data-item-order="-128128" transform="translate(518.0001220703125, 146)"><g id="sy_4_cu_18lx9b7e7kjyl-stroke" fill="none" stroke-linecap="round" stroke-linejoin="round" stroke-miterlimit="4" stroke="#92bd39" stroke-width="2"><g><path d="M 10 130L 10 34L 166 34L 166 22L 214 82L 166 143L 166 130L 10 130ZM 57.9999 10L 57.9999 34L 10 34L 57.9999 10Z"></path></g></g></g><g id="g-root-tx__1463r6re7kkqu-stroke" data-item-order="0" transform="translate(200, 38)"></g><g id="g-root-tx__hzmpnne7kjyn-stroke" data-item-order="0" transform="translate(26, 122)"></g><g id="g-root-tx__1uu9q3ne7kjr5-stroke" data-item-order="0" transform="translate(194, 146)"></g><g id="g-root-tx_ai_18n67hfe7km4r-stroke" data-item-order="0" transform="translate(362, 170)"></g><g id="g-root-tx__i0vntve7km4t-stroke" data-item-order="0" transform="translate(530, 194)"></g><g id="g-root-tx__93zpere7klj4-stroke" data-item-order="0" transform="translate(26, 218)"></g><g id="g-root-tx__1hit7qbe7klc2-stroke" data-item-order="0" transform="translate(194, 242)"></g><g id="g-root-tx_ai_vcc677e7kkjw-stroke" data-item-order="0" transform="translate(362, 266)"></g><g id="g-root-tx__4g215ve7lz4e-stroke" data-item-order="0" transform="translate(530, 290)"></g></g></g><path id="w3zq8jh9eoln" d="M65.283 12.757a.35.35 0 0 0 .584.157l5.203-5.141-6.183 3.523.396 1.461zm-2.216-11.7a.35.35 0 0 0-.522.305v3.111l3.276-1.868-2.754-1.548zm3.728 2.105l-4.25 2.421v2.445l6.391-3.644-2.141-1.222zm4.708 3.303a.35.35 0 0 0 0-.609l-1.592-.9-7.365 4.199v1.782a.35.35 0 0 0 .523.305l8.435-4.777z M44.542 2.513c0-.433.355-.783.792-.783s.792.35.792.783-.355.783-.792.783-.792-.35-.792-.783zm59.171 0c0-.433.355-.783.792-.783s.792.35.792.783-.355.783-.792.783-.792-.35-.792-.783zm-85.951 7.636h-1.27v-.487c-.276.201-.864.609-1.881.609-1.202 0-2.274-.794-2.137-2.078.118-1.106 1.153-1.584 1.848-1.727l2.17-.345c0-.539-.29-.956-1.064-1.006s-1.21.305-1.571 1.017l-1.124-.605c1.218-2.631 5.029-1.764 5.029.414v4.207zm-1.27-2.86c.006.396-.062 1.112-.819 1.59-.587.37-1.841.299-1.903-.395-.049-.555.461-.791.906-.898l1.816-.297zm72.662 2.86h-1.27v-.487c-.276.201-.864.609-1.881.609-1.202 0-2.274-.794-2.137-2.078.118-1.106 1.153-1.584 1.848-1.727l2.17-.345c0-.539-.29-.956-1.064-1.006s-1.21.305-1.571 1.017l-1.124-.605c1.218-2.631 5.029-1.764 5.029.414v4.207zm-1.27-2.86c.006.396-.062 1.112-.82 1.59-.587.37-1.841.299-1.903-.395-.049-.555.461-.791.906-.898l1.816-.297zM99.096 10.149H97.85v-8.45h1.246v4.895l2.68-2.559h1.738l-2.633 2.535 2.715 3.578h-1.556l-2.077-2.707-.867.844v1.863zm6.053-6.114h-1.255v6.113h1.255V4.035zm-59.2 0h-1.255v6.113h1.255V4.035zm5.584 6.113V1.697h1.255v2.695c.361-.346 1-.485 1.47-.485 1.452 0 2.477 1.082 2.457 2.448v3.792h-1.27v-3.68c0-.408-.214-1.339-1.315-1.339-.968 0-1.342.756-1.342 1.339v3.681h-1.255zm-4.76-4.894V4.039h.621a.45.45 0 0 0 .45-.45v-.855h1.251v1.305h1.309v1.215h-1.309v3.109c0 .293.105.664.648.664.365 0 .531-.035.736-.07v1.137s-.361.113-.857.113c-1.398 0-1.777-1.051-1.777-1.788V5.254h-1.071zM36.528 4.039h-1.394l2.191 6.106h1.125l1.234-3.918 1.238 3.918h1.129l2.188-6.106h-1.383l-1.359 3.93-1.256-3.93h-1.124l-1.242 3.957-1.348-3.957zM26.212 7.141c-.02 1.566 1.187 3.129 3.223 3.129 1.566 0 2.383-.918 2.734-1.719L31.172 8c-.315.399-.801 1.094-1.738 1.094-1.145 0-1.825-.781-1.891-1.52h4.625c.074-.284.148-.995-.03-1.559-.336-1.064-1.221-2.102-2.839-2.102s-3.088 1.152-3.088 3.227zm1.363-.75h3.348c-.055-.43-.566-1.301-1.623-1.301a1.79 1.79 0 0 0-1.725 1.301zm-8.758.75c.038 1.758 1.277 3.133 3.145 3.133 1.074 0 1.723-.477 1.961-.672v.547h1.242V1.703h-1.258v2.888c-.414-.36-1.062-.68-1.93-.68-1.91 0-3.198 1.473-3.16 3.23zm1.309-.08c0 1.119.723 1.978 1.836 1.978a1.88 1.88 0 0 0 1.94-1.904c0-1.371-1.011-1.99-1.972-1.99s-1.805.798-1.805 1.916zm76.683-.028C96.771 5.275 95.532 3.9 93.664 3.9c-1.074 0-1.723.477-1.961.672v-.547h-1.242v8.22h1.258V9.583c.414.36 1.063.68 1.93.68 1.91 0 3.198-1.473 3.16-3.23zm-1.309.08c0-1.119-.723-1.978-1.836-1.978a1.88 1.88 0 0 0-1.94 1.904c0 1.371 1.011 1.99 1.972 1.99S95.5 8.231 95.5 7.113zM106.441 10.173V4.036h1.254v.382c.361-.346 1-.485 1.47-.485 1.452 0 2.477 1.082 2.457 2.448v3.792h-1.27V6.492c0-.408-.214-1.339-1.315-1.339-.969 0-1.342.756-1.342 1.339v3.681h-1.254zm-30.383-.021V1.824h1.084l4.215 5.777V1.824h1.32v8.328h-1.094l-4.207-5.796v5.796h-1.319zM5.24 10.149H4V2.377h1.014l2.664 3.597 2.654-3.592h1.03v7.766h-1.256V4.762L7.678 8.068 5.24 4.742v5.407z" transform="translate(20, 372)" fill="#80808088" stroke="none"></path></svg>